<svg width="290" height="36" viewBox="0 0 290 36" fill="none" xmlns="http://www.w3.org/2000/svg">
<path d="M1.14258 18V1H264.222L289 18L264.222 35H1.14258V18Z" fill="#398172" stroke="black"/>
<path d="M29.6916 24C29.5849 24 29.4942 23.9627 29.4196 23.888C29.3449 23.8133 29.3076 23.7227 29.3076 23.616V13.2C29.3076 13.0827 29.3396 12.9867 29.4036 12.912C29.4782 12.8373 29.5742 12.8 29.6916 12.8H36.7316C36.8489 12.8 36.9449 12.8373 37.0196 12.912C37.0942 12.9867 37.1316 13.0827 37.1316 13.2V14.256C37.1316 14.3733 37.0942 14.4693 37.0196 14.544C36.9449 14.608 36.8489 14.64 36.7316 14.64H31.4676V17.472H36.3796C36.4969 17.472 36.5929 17.5093 36.6676 17.584C36.7422 17.648 36.7796 17.7387 36.7796 17.856V18.848C36.7796 18.9653 36.7422 19.0613 36.6676 19.136C36.5929 19.2 36.4969 19.232 36.3796 19.232H31.4676V22.16H36.8596C36.9769 22.16 37.0729 22.1973 37.1476 22.272C37.2222 22.3467 37.2596 22.4427 37.2596 22.56V23.616C37.2596 23.7333 37.2222 23.8293 37.1476 23.904C37.0729 23.968 36.9769 24 36.8596 24H29.6916ZM32.3156 12C32.1449 12 32.0596 11.9147 32.0596 11.744C32.0596 11.6587 32.0862 11.5893 32.1396 11.536L33.4356 9.952C33.5422 9.83467 33.6329 9.76 33.7076 9.728C33.7822 9.68533 33.8889 9.664 34.0276 9.664H35.7396C35.9422 9.664 36.0436 9.76533 36.0436 9.968C36.0436 10.0427 36.0169 10.1067 35.9636 10.16L33.9796 11.792C33.8836 11.8667 33.7929 11.92 33.7076 11.952C33.6329 11.984 33.5369 12 33.4196 12H32.3156ZM42.7193 24C41.7487 24 41.018 23.7493 40.5273 23.248C40.0473 22.736 39.8073 21.9893 39.8073 21.008V17.376H38.5433C38.4367 17.376 38.346 17.3387 38.2713 17.264C38.1967 17.1787 38.1593 17.0827 38.1593 16.976V16.064C38.1593 15.9573 38.1967 15.8667 38.2713 15.792C38.346 15.7173 38.4367 15.68 38.5433 15.68H39.8073V13.024C39.8073 12.9067 39.8447 12.816 39.9193 12.752C39.994 12.6773 40.0847 12.64 40.1913 12.64H41.4873C41.6047 12.64 41.6953 12.6773 41.7593 12.752C41.834 12.816 41.8713 12.9067 41.8713 13.024V15.68H43.8713C43.9887 15.68 44.0793 15.7173 44.1433 15.792C44.218 15.856 44.2553 15.9467 44.2553 16.064V16.976C44.2553 17.0933 44.218 17.1893 44.1433 17.264C44.0687 17.3387 43.978 17.376 43.8713 17.376H41.8713V20.848C41.8713 21.3067 41.9513 21.6533 42.1113 21.888C42.2713 22.1227 42.538 22.24 42.9113 22.24H44.0153C44.122 22.24 44.2127 22.2773 44.2873 22.352C44.362 22.4267 44.3993 22.5173 44.3993 22.624V23.616C44.3993 23.7227 44.362 23.8133 44.2873 23.888C44.2233 23.9627 44.1327 24 44.0153 24H42.7193ZM48.2347 24.16C47.6907 24.16 47.1894 24.0533 46.7307 23.84C46.2827 23.616 45.9254 23.3173 45.6587 22.944C45.4027 22.5707 45.2747 22.16 45.2747 21.712C45.2747 20.9867 45.568 20.4 46.1547 19.952C46.7414 19.504 47.5467 19.2 48.5707 19.04L50.7627 18.72V18.384C50.7627 17.9147 50.6454 17.5627 50.4107 17.328C50.176 17.0933 49.7974 16.976 49.2747 16.976C48.9227 16.976 48.6347 17.0453 48.4107 17.184C48.1974 17.312 48.0267 17.44 47.8987 17.568C47.7707 17.7067 47.6854 17.7973 47.6427 17.84C47.6 17.968 47.52 18.032 47.4027 18.032H46.1707C46.0747 18.032 45.9894 18 45.9147 17.936C45.8507 17.872 45.8187 17.7867 45.8187 17.68C45.8294 17.4133 45.9574 17.1093 46.2027 16.768C46.4587 16.4267 46.848 16.1333 47.3707 15.888C47.8934 15.6427 48.5334 15.52 49.2907 15.52C50.5494 15.52 51.4667 15.8027 52.0427 16.368C52.6187 16.9333 52.9067 17.6747 52.9067 18.592V23.616C52.9067 23.7227 52.8694 23.8133 52.7947 23.888C52.7307 23.9627 52.64 24 52.5227 24H51.2267C51.12 24 51.0294 23.9627 50.9547 23.888C50.88 23.8133 50.8427 23.7227 50.8427 23.616V22.992C50.608 23.3333 50.272 23.616 49.8347 23.84C49.408 24.0533 48.8747 24.16 48.2347 24.16ZM48.7787 22.64C49.3654 22.64 49.8454 22.448 50.2187 22.064C50.592 21.68 50.7787 21.12 50.7787 20.384V20.048L49.1787 20.304C48.56 20.4 48.0907 20.5547 47.7707 20.768C47.4614 20.9813 47.3067 21.2427 47.3067 21.552C47.3067 21.8933 47.4507 22.16 47.7387 22.352C48.0267 22.544 48.3734 22.64 48.7787 22.64ZM55.3593 27.04C55.2527 27.04 55.162 27.0027 55.0873 26.928C55.0127 26.864 54.9753 26.7733 54.9753 26.656V16.064C54.9753 15.9467 55.0127 15.856 55.0873 15.792C55.162 15.7173 55.2527 15.68 55.3593 15.68H56.6233C56.7407 15.68 56.8313 15.7173 56.8953 15.792C56.97 15.856 57.0073 15.9467 57.0073 16.064V16.704C57.6047 15.9147 58.458 15.52 59.5673 15.52C60.6447 15.52 61.4713 15.8613 62.0473 16.544C62.6233 17.216 62.9327 18.128 62.9753 19.28C62.986 19.408 62.9913 19.5947 62.9913 19.84C62.9913 20.096 62.986 20.288 62.9753 20.416C62.9327 21.536 62.6233 22.4427 62.0473 23.136C61.4713 23.8187 60.6447 24.16 59.5673 24.16C58.49 24.16 57.6687 23.7813 57.1033 23.024V26.656C57.1033 26.7733 57.066 26.864 56.9913 26.928C56.9273 27.0027 56.8367 27.04 56.7193 27.04H55.3593ZM58.9753 22.448C60.1273 22.448 60.7407 21.7387 60.8153 20.32C60.826 20.2133 60.8313 20.0533 60.8313 19.84C60.8313 19.6267 60.826 19.4667 60.8153 19.36C60.7407 17.9413 60.1273 17.232 58.9753 17.232C58.3567 17.232 57.898 17.4293 57.5993 17.824C57.3007 18.2187 57.1353 18.704 57.1033 19.28L57.0873 19.888L57.1033 20.512C57.1247 21.0453 57.29 21.504 57.5993 21.888C57.9193 22.2613 58.378 22.448 58.9753 22.448ZM68.3714 24.16C67.1874 24.16 66.2434 23.8187 65.5394 23.136C64.8461 22.4427 64.4781 21.472 64.4354 20.224L64.4194 19.824L64.4354 19.424C64.4888 18.208 64.8621 17.2533 65.5554 16.56C66.2594 15.8667 67.1981 15.52 68.3714 15.52C69.6301 15.52 70.6008 15.904 71.2834 16.672C71.9768 17.44 72.3234 18.464 72.3234 19.744V20.08C72.3234 20.1867 72.2861 20.2773 72.2114 20.352C72.1368 20.4267 72.0408 20.464 71.9234 20.464H66.6114V20.592C66.6328 21.1787 66.7928 21.6747 67.0914 22.08C67.4008 22.4747 67.8221 22.672 68.3554 22.672C68.9848 22.672 69.4914 22.4267 69.8754 21.936C69.9714 21.8187 70.0461 21.744 70.0994 21.712C70.1634 21.68 70.2541 21.664 70.3714 21.664H71.7474C71.8434 21.664 71.9234 21.696 71.9874 21.76C72.0621 21.8133 72.0994 21.8827 72.0994 21.968C72.0994 22.224 71.9448 22.528 71.6354 22.88C71.3368 23.2213 70.9048 23.52 70.3394 23.776C69.7741 24.032 69.1181 24.16 68.3714 24.16ZM70.1474 19.12V19.072C70.1474 18.4427 69.9874 17.936 69.6674 17.552C69.3581 17.168 68.9261 16.976 68.3714 16.976C67.8168 16.976 67.3848 17.168 67.0754 17.552C66.7661 17.936 66.6114 18.4427 66.6114 19.072V19.12H70.1474ZM81.5981 24.16C80.6594 24.16 79.8594 24.0107 79.1981 23.712C78.5474 23.4133 78.0567 23.04 77.7261 22.592C77.4061 22.1333 77.2354 21.664 77.2141 21.184C77.2141 21.088 77.2461 21.0133 77.3101 20.96C77.3847 20.896 77.4701 20.864 77.5661 20.864H79.0061C79.2407 20.864 79.3954 20.9707 79.4701 21.184C79.7047 21.952 80.4194 22.336 81.6141 22.336C82.2647 22.336 82.7767 22.1867 83.1501 21.888C83.5234 21.5787 83.7101 21.1413 83.7101 20.576C83.7101 19.5093 83.0434 18.976 81.7101 18.976H80.0621C79.9447 18.976 79.8487 18.9387 79.7741 18.864C79.6994 18.7893 79.6621 18.6987 79.6621 18.592V17.92C79.6621 17.7493 79.7367 17.5893 79.8861 17.44L82.7501 14.64H78.1741C78.0674 14.64 77.9767 14.6027 77.9021 14.528C77.8274 14.4533 77.7901 14.3627 77.7901 14.256V13.2C77.7901 13.0827 77.8221 12.9867 77.8861 12.912C77.9607 12.8373 78.0567 12.8 78.1741 12.8H85.0381C85.1554 12.8 85.2514 12.8373 85.3261 12.912C85.4007 12.9867 85.4381 13.0827 85.4381 13.2V14.16C85.4381 14.32 85.3687 14.4693 85.2301 14.608L82.4621 17.456L82.6541 17.472C83.6781 17.5573 84.4887 17.8667 85.0861 18.4C85.6941 18.9333 85.9981 19.696 85.9981 20.688C85.9981 21.392 85.8061 22.0053 85.4221 22.528C85.0487 23.0507 84.5261 23.456 83.8541 23.744C83.1927 24.0213 82.4407 24.16 81.5981 24.16ZM94.5004 24.16C93.4231 24.16 92.5964 23.8133 92.0204 23.12C91.4444 22.4267 91.1351 21.504 91.0924 20.352L91.0764 19.824L91.0924 19.312C91.1244 18.192 91.4284 17.28 92.0044 16.576C92.5911 15.872 93.4231 15.52 94.5004 15.52C95.5351 15.52 96.3564 15.872 96.9644 16.576V13.024C96.9644 12.9067 97.0018 12.816 97.0764 12.752C97.1511 12.6773 97.2418 12.64 97.3484 12.64H98.7084C98.8258 12.64 98.9164 12.6773 98.9804 12.752C99.0551 12.816 99.0924 12.9067 99.0924 13.024V23.616C99.0924 23.7227 99.0551 23.8133 98.9804 23.888C98.9164 23.9627 98.8258 24 98.7084 24H97.4444C97.3378 24 97.2471 23.9627 97.1724 23.888C97.0978 23.8133 97.0604 23.7227 97.0604 23.616V23.024C96.4524 23.7813 95.5991 24.16 94.5004 24.16ZM95.0924 22.448C95.7111 22.448 96.1698 22.2507 96.4684 21.856C96.7671 21.4613 96.9324 20.976 96.9644 20.4C96.9751 20.272 96.9804 20.064 96.9804 19.776C96.9804 19.4987 96.9751 19.296 96.9644 19.168C96.9431 18.6347 96.7724 18.1813 96.4524 17.808C96.1431 17.424 95.6898 17.232 95.0924 17.232C93.9404 17.232 93.3271 17.9413 93.2524 19.36L93.2364 19.84L93.2524 20.32C93.3271 21.7387 93.9404 22.448 95.0924 22.448ZM104.809 24.16C103.625 24.16 102.681 23.8187 101.977 23.136C101.284 22.4427 100.916 21.472 100.873 20.224L100.857 19.824L100.873 19.424C100.926 18.208 101.3 17.2533 101.993 16.56C102.697 15.8667 103.636 15.52 104.809 15.52C106.068 15.52 107.038 15.904 107.721 16.672C108.414 17.44 108.761 18.464 108.761 19.744V20.08C108.761 20.1867 108.724 20.2773 108.649 20.352C108.574 20.4267 108.478 20.464 108.361 20.464H103.049V20.592C103.07 21.1787 103.23 21.6747 103.529 22.08C103.838 22.4747 104.26 22.672 104.793 22.672C105.422 22.672 105.929 22.4267 106.313 21.936C106.409 21.8187 106.484 21.744 106.537 21.712C106.601 21.68 106.692 21.664 106.809 21.664H108.185C108.281 21.664 108.361 21.696 108.425 21.76C108.5 21.8133 108.537 21.8827 108.537 21.968C108.537 22.224 108.382 22.528 108.073 22.88C107.774 23.2213 107.342 23.52 106.777 23.776C106.212 24.032 105.556 24.16 104.809 24.16ZM106.585 19.12V19.072C106.585 18.4427 106.425 17.936 106.105 17.552C105.796 17.168 105.364 16.976 104.809 16.976C104.254 16.976 103.822 17.168 103.513 17.552C103.204 17.936 103.049 18.4427 103.049 19.072V19.12H106.585ZM118.036 24.16C117.097 24.16 116.297 24.0107 115.636 23.712C114.985 23.4133 114.494 23.04 114.164 22.592C113.844 22.1333 113.673 21.664 113.652 21.184C113.652 21.088 113.684 21.0133 113.748 20.96C113.822 20.896 113.908 20.864 114.004 20.864H115.444C115.678 20.864 115.833 20.9707 115.908 21.184C116.142 21.952 116.857 22.336 118.052 22.336C118.702 22.336 119.214 22.1867 119.588 21.888C119.961 21.5787 120.148 21.1413 120.148 20.576C120.148 19.5093 119.481 18.976 118.148 18.976H116.5C116.382 18.976 116.286 18.9387 116.212 18.864C116.137 18.7893 116.1 18.6987 116.1 18.592V17.92C116.1 17.7493 116.174 17.5893 116.324 17.44L119.188 14.64H114.612C114.505 14.64 114.414 14.6027 114.34 14.528C114.265 14.4533 114.228 14.3627 114.228 14.256V13.2C114.228 13.0827 114.26 12.9867 114.324 12.912C114.398 12.8373 114.494 12.8 114.612 12.8H121.476C121.593 12.8 121.689 12.8373 121.764 12.912C121.838 12.9867 121.876 13.0827 121.876 13.2V14.16C121.876 14.32 121.806 14.4693 121.668 14.608L118.9 17.456L119.092 17.472C120.116 17.5573 120.926 17.8667 121.524 18.4C122.132 18.9333 122.436 19.696 122.436 20.688C122.436 21.392 122.244 22.0053 121.86 22.528C121.486 23.0507 120.964 23.456 120.292 23.744C119.63 24.0213 118.878 24.16 118.036 24.16ZM131.842 20.112C131.736 20.112 131.645 20.0747 131.57 20C131.496 19.9253 131.458 19.8347 131.458 19.728V18.672C131.458 18.5547 131.496 18.464 131.57 18.4C131.645 18.3253 131.736 18.288 131.842 18.288H136.754C136.872 18.288 136.962 18.3253 137.026 18.4C137.101 18.464 137.138 18.5547 137.138 18.672V19.728C137.138 19.8347 137.101 19.9253 137.026 20C136.962 20.0747 136.872 20.112 136.754 20.112H131.842ZM145.9 24C145.59 24 145.388 23.8507 145.292 23.552L141.868 13.28L141.836 13.136C141.836 13.04 141.868 12.96 141.932 12.896C141.996 12.832 142.076 12.8 142.172 12.8H143.58C143.718 12.8 143.825 12.8373 143.9 12.912C143.985 12.976 144.044 13.056 144.076 13.152L146.78 21.392L149.484 13.152C149.505 13.0667 149.558 12.9867 149.644 12.912C149.729 12.8373 149.841 12.8 149.98 12.8H151.388C151.473 12.8 151.548 12.832 151.612 12.896C151.686 12.96 151.724 13.04 151.724 13.136L151.692 13.28L148.268 23.552C148.172 23.8507 147.969 24 147.66 24H145.9ZM154.719 24.16C154.175 24.16 153.674 24.0533 153.215 23.84C152.767 23.616 152.41 23.3173 152.143 22.944C151.887 22.5707 151.759 22.16 151.759 21.712C151.759 20.9867 152.052 20.4 152.639 19.952C153.226 19.504 154.031 19.2 155.055 19.04L157.247 18.72V18.384C157.247 17.9147 157.13 17.5627 156.895 17.328C156.66 17.0933 156.282 16.976 155.759 16.976C155.407 16.976 155.119 17.0453 154.895 17.184C154.682 17.312 154.511 17.44 154.383 17.568C154.255 17.7067 154.17 17.7973 154.127 17.84C154.084 17.968 154.004 18.032 153.887 18.032H152.655C152.559 18.032 152.474 18 152.399 17.936C152.335 17.872 152.303 17.7867 152.303 17.68C152.314 17.4133 152.442 17.1093 152.687 16.768C152.943 16.4267 153.332 16.1333 153.855 15.888C154.378 15.6427 155.018 15.52 155.775 15.52C157.034 15.52 157.951 15.8027 158.527 16.368C159.103 16.9333 159.391 17.6747 159.391 18.592V23.616C159.391 23.7227 159.354 23.8133 159.279 23.888C159.215 23.9627 159.124 24 159.007 24H157.711C157.604 24 157.514 23.9627 157.439 23.888C157.364 23.8133 157.327 23.7227 157.327 23.616V22.992C157.092 23.3333 156.756 23.616 156.319 23.84C155.892 24.0533 155.359 24.16 154.719 24.16ZM155.263 22.64C155.85 22.64 156.33 22.448 156.703 22.064C157.076 21.68 157.263 21.12 157.263 20.384V20.048L155.663 20.304C155.044 20.4 154.575 20.5547 154.255 20.768C153.946 20.9813 153.791 21.2427 153.791 21.552C153.791 21.8933 153.935 22.16 154.223 22.352C154.511 22.544 154.858 22.64 155.263 22.64ZM161.844 24C161.737 24 161.646 23.9627 161.572 23.888C161.497 23.8133 161.46 23.7227 161.46 23.616V13.024C161.46 12.9067 161.497 12.816 161.572 12.752C161.646 12.6773 161.737 12.64 161.844 12.64H163.172C163.289 12.64 163.38 12.6773 163.444 12.752C163.518 12.816 163.556 12.9067 163.556 13.024V23.616C163.556 23.7227 163.518 23.8133 163.444 23.888C163.38 23.9627 163.289 24 163.172 24H161.844ZM165.998 14.304C165.891 14.304 165.801 14.2667 165.726 14.192C165.651 14.1173 165.614 14.0267 165.614 13.92V12.768C165.614 12.6613 165.651 12.5707 165.726 12.496C165.801 12.4213 165.891 12.384 165.998 12.384H167.454C167.561 12.384 167.651 12.4213 167.726 12.496C167.811 12.5707 167.854 12.6613 167.854 12.768V13.92C167.854 14.0267 167.817 14.1173 167.742 14.192C167.667 14.2667 167.571 14.304 167.454 14.304H165.998ZM166.062 24C165.955 24 165.865 23.9627 165.79 23.888C165.715 23.8133 165.678 23.7227 165.678 23.616V16.064C165.678 15.9573 165.715 15.8667 165.79 15.792C165.865 15.7173 165.955 15.68 166.062 15.68H167.39C167.507 15.68 167.598 15.7173 167.662 15.792C167.737 15.856 167.774 15.9467 167.774 16.064V23.616C167.774 23.7227 167.737 23.8133 167.662 23.888C167.598 23.9627 167.507 24 167.39 24H166.062ZM172.985 24.16C171.907 24.16 171.081 23.8133 170.505 23.12C169.929 22.4267 169.619 21.504 169.577 20.352L169.561 19.824L169.577 19.312C169.609 18.192 169.913 17.28 170.489 16.576C171.075 15.872 171.907 15.52 172.985 15.52C174.019 15.52 174.841 15.872 175.449 16.576V13.024C175.449 12.9067 175.486 12.816 175.561 12.752C175.635 12.6773 175.726 12.64 175.833 12.64H177.193C177.31 12.64 177.401 12.6773 177.465 12.752C177.539 12.816 177.577 12.9067 177.577 13.024V23.616C177.577 23.7227 177.539 23.8133 177.465 23.888C177.401 23.9627 177.31 24 177.193 24H175.929C175.822 24 175.731 23.9627 175.657 23.888C175.582 23.8133 175.545 23.7227 175.545 23.616V23.024C174.937 23.7813 174.083 24.16 172.985 24.16ZM173.577 22.448C174.195 22.448 174.654 22.2507 174.953 21.856C175.251 21.4613 175.417 20.976 175.449 20.4C175.459 20.272 175.465 20.064 175.465 19.776C175.465 19.4987 175.459 19.296 175.449 19.168C175.427 18.6347 175.257 18.1813 174.937 17.808C174.627 17.424 174.174 17.232 173.577 17.232C172.425 17.232 171.811 17.9413 171.737 19.36L171.721 19.84L171.737 20.32C171.811 21.7387 172.425 22.448 173.577 22.448ZM182.125 24.16C181.581 24.16 181.08 24.0533 180.621 23.84C180.173 23.616 179.816 23.3173 179.549 22.944C179.293 22.5707 179.165 22.16 179.165 21.712C179.165 20.9867 179.459 20.4 180.045 19.952C180.632 19.504 181.437 19.2 182.461 19.04L184.653 18.72V18.384C184.653 17.9147 184.536 17.5627 184.301 17.328C184.067 17.0933 183.688 16.976 183.165 16.976C182.813 16.976 182.525 17.0453 182.301 17.184C182.088 17.312 181.917 17.44 181.789 17.568C181.661 17.7067 181.576 17.7973 181.533 17.84C181.491 17.968 181.411 18.032 181.293 18.032H180.061C179.965 18.032 179.88 18 179.805 17.936C179.741 17.872 179.709 17.7867 179.709 17.68C179.72 17.4133 179.848 17.1093 180.093 16.768C180.349 16.4267 180.739 16.1333 181.261 15.888C181.784 15.6427 182.424 15.52 183.181 15.52C184.44 15.52 185.357 15.8027 185.933 16.368C186.509 16.9333 186.797 17.6747 186.797 18.592V23.616C186.797 23.7227 186.76 23.8133 186.685 23.888C186.621 23.9627 186.531 24 186.413 24H185.117C185.011 24 184.92 23.9627 184.845 23.888C184.771 23.8133 184.733 23.7227 184.733 23.616V22.992C184.499 23.3333 184.163 23.616 183.725 23.84C183.299 24.0533 182.765 24.16 182.125 24.16ZM182.669 22.64C183.256 22.64 183.736 22.448 184.109 22.064C184.483 21.68 184.669 21.12 184.669 20.384V20.048L183.069 20.304C182.451 20.4 181.981 20.5547 181.661 20.768C181.352 20.9813 181.197 21.2427 181.197 21.552C181.197 21.8933 181.341 22.16 181.629 22.352C181.917 22.544 182.264 22.64 182.669 22.64ZM192.532 24C191.561 24 190.83 23.7493 190.34 23.248C189.86 22.736 189.62 21.9893 189.62 21.008V17.376H188.356C188.249 17.376 188.158 17.3387 188.084 17.264C188.009 17.1787 187.972 17.0827 187.972 16.976V16.064C187.972 15.9573 188.009 15.8667 188.084 15.792C188.158 15.7173 188.249 15.68 188.356 15.68H189.62V13.024C189.62 12.9067 189.657 12.816 189.732 12.752C189.806 12.6773 189.897 12.64 190.004 12.64H191.3C191.417 12.64 191.508 12.6773 191.572 12.752C191.646 12.816 191.684 12.9067 191.684 13.024V15.68H193.684C193.801 15.68 193.892 15.7173 193.956 15.792C194.03 15.856 194.068 15.9467 194.068 16.064V16.976C194.068 17.0933 194.03 17.1893 193.956 17.264C193.881 17.3387 193.79 17.376 193.684 17.376H191.684V20.848C191.684 21.3067 191.764 21.6533 191.924 21.888C192.084 22.1227 192.35 22.24 192.724 22.24H193.828C193.934 22.24 194.025 22.2773 194.1 22.352C194.174 22.4267 194.212 22.5173 194.212 22.624V23.616C194.212 23.7227 194.174 23.8133 194.1 23.888C194.036 23.9627 193.945 24 193.828 24H192.532ZM195.951 14.304C195.845 14.304 195.754 14.2667 195.679 14.192C195.605 14.1173 195.567 14.0267 195.567 13.92V12.768C195.567 12.6613 195.605 12.5707 195.679 12.496C195.754 12.4213 195.845 12.384 195.951 12.384H197.407C197.514 12.384 197.605 12.4213 197.679 12.496C197.765 12.5707 197.807 12.6613 197.807 12.768V13.92C197.807 14.0267 197.77 14.1173 197.695 14.192C197.621 14.2667 197.525 14.304 197.407 14.304H195.951ZM196.015 24C195.909 24 195.818 23.9627 195.743 23.888C195.669 23.8133 195.631 23.7227 195.631 23.616V16.064C195.631 15.9573 195.669 15.8667 195.743 15.792C195.818 15.7173 195.909 15.68 196.015 15.68H197.343C197.461 15.68 197.551 15.7173 197.615 15.792C197.69 15.856 197.727 15.9467 197.727 16.064V23.616C197.727 23.7227 197.69 23.8133 197.615 23.888C197.551 23.9627 197.461 24 197.343 24H196.015ZM203.53 24.16C202.282 24.16 201.317 23.84 200.634 23.2C199.951 22.5493 199.583 21.664 199.53 20.544L199.514 19.84L199.53 19.136C199.583 18.0267 199.957 17.1467 200.65 16.496C201.343 15.8453 202.303 15.52 203.53 15.52C204.757 15.52 205.717 15.8453 206.41 16.496C207.103 17.1467 207.477 18.0267 207.53 19.136C207.541 19.264 207.546 19.4987 207.546 19.84C207.546 20.1813 207.541 20.416 207.53 20.544C207.477 21.664 207.109 22.5493 206.426 23.2C205.743 23.84 204.778 24.16 203.53 24.16ZM203.53 22.576C204.095 22.576 204.533 22.4 204.842 22.048C205.151 21.6853 205.322 21.1573 205.354 20.464C205.365 20.3573 205.37 20.1493 205.37 19.84C205.37 19.5307 205.365 19.3227 205.354 19.216C205.322 18.5227 205.151 18 204.842 17.648C204.533 17.2853 204.095 17.104 203.53 17.104C202.965 17.104 202.527 17.2853 202.218 17.648C201.909 18 201.738 18.5227 201.706 19.216L201.69 19.84L201.706 20.464C201.738 21.1573 201.909 21.6853 202.218 22.048C202.527 22.4 202.965 22.576 203.53 22.576ZM209.703 24C209.596 24 209.505 23.9627 209.431 23.888C209.356 23.8133 209.319 23.7227 209.319 23.616V16.064C209.319 15.9573 209.356 15.8667 209.431 15.792C209.505 15.7173 209.596 15.68 209.703 15.68H211.015C211.121 15.68 211.212 15.7173 211.287 15.792C211.361 15.8667 211.399 15.9573 211.399 16.064V16.72C212.028 15.92 212.919 15.52 214.071 15.52C215.052 15.52 215.831 15.8453 216.407 16.496C216.983 17.136 217.271 18.0107 217.271 19.12V23.616C217.271 23.7227 217.233 23.8133 217.159 23.888C217.095 23.9627 217.004 24 216.887 24H215.479C215.372 24 215.281 23.9627 215.207 23.888C215.132 23.8133 215.095 23.7227 215.095 23.616V19.216C215.095 18.5867 214.94 18.1013 214.631 17.76C214.332 17.408 213.895 17.232 213.319 17.232C212.753 17.232 212.305 17.408 211.975 17.76C211.655 18.112 211.495 18.5973 211.495 19.216V23.616C211.495 23.7227 211.457 23.8133 211.383 23.888C211.319 23.9627 211.228 24 211.111 24H209.703Z" fill="white"/>
</svg>
