<svg width="589" height="36" viewBox="0 0 589 36" fill="none" xmlns="http://www.w3.org/2000/svg">
<path d="M197.5 1H1V35H197.5L214.5 18L197.5 1Z" fill="#62BFAD" stroke="black"/>
<path d="M214.5 18L197.5 1H390.5L407.5 18L390.5 35H197.5L214.5 18Z" fill="#62BFAD" stroke="black"/>
<path d="M407.5 18L390.5 1H571L588 18L571 35H390.5L407.5 18Z" fill="#398172" stroke="black"/>
<path d="M54.968 23C54.848 23 54.746 22.964 54.662 22.892C54.59 22.808 54.554 22.706 54.554 22.586V12.506L51.566 14.81C51.482 14.882 51.392 14.918 51.296 14.918C51.188 14.918 51.086 14.858 50.99 14.738L50.522 14.144C50.462 14.06 50.432 13.976 50.432 13.892C50.432 13.748 50.492 13.634 50.612 13.55L54.536 10.526C54.668 10.442 54.824 10.4 55.004 10.4H55.922C56.042 10.4 56.138 10.442 56.21 10.526C56.294 10.598 56.336 10.694 56.336 10.814V22.586C56.336 22.706 56.294 22.808 56.21 22.892C56.138 22.964 56.042 23 55.922 23H54.968ZM59.3192 23C59.1992 23 59.0972 22.964 59.0132 22.892C58.9412 22.808 58.9052 22.706 58.9052 22.586V21.29C58.9052 21.17 58.9412 21.074 59.0132 21.002C59.0972 20.918 59.1992 20.876 59.3192 20.876H60.6152C60.7352 20.876 60.8372 20.918 60.9212 21.002C61.0052 21.074 61.0472 21.17 61.0472 21.29V22.586C61.0472 22.706 61.0052 22.808 60.9212 22.892C60.8372 22.964 60.7352 23 60.6152 23H59.3192ZM64.0913 23C63.9713 23 63.8693 22.964 63.7853 22.892C63.7133 22.808 63.6773 22.706 63.6773 22.586V10.814C63.6773 10.694 63.7133 10.598 63.7853 10.526C63.8693 10.442 63.9713 10.4 64.0913 10.4H65.0453C65.1653 10.4 65.2613 10.442 65.3333 10.526C65.4173 10.598 65.4593 10.694 65.4593 10.814V21.434H71.4353C71.5673 21.434 71.6693 21.476 71.7413 21.56C71.8253 21.632 71.8673 21.734 71.8673 21.866V22.586C71.8673 22.706 71.8253 22.808 71.7413 22.892C71.6573 22.964 71.5553 23 71.4353 23H64.0913ZM73.8559 11.894C73.7359 11.894 73.6339 11.858 73.5499 11.786C73.4779 11.702 73.4419 11.6 73.4419 11.48V10.508C73.4419 10.388 73.4779 10.286 73.5499 10.202C73.6339 10.118 73.7359 10.076 73.8559 10.076H74.9899C75.1099 10.076 75.2119 10.118 75.2959 10.202C75.3799 10.286 75.4219 10.388 75.4219 10.508V11.48C75.4219 11.6 75.3799 11.702 75.2959 11.786C75.2119 11.858 75.1099 11.894 74.9899 11.894H73.8559ZM73.9999 23C73.8799 23 73.7779 22.964 73.6939 22.892C73.6219 22.808 73.5859 22.706 73.5859 22.586V14.054C73.5859 13.934 73.6219 13.838 73.6939 13.766C73.7779 13.682 73.8799 13.64 73.9999 13.64H74.8639C74.9839 13.64 75.0799 13.682 75.1519 13.766C75.2359 13.838 75.2779 13.934 75.2779 14.054V22.586C75.2779 22.706 75.2359 22.808 75.1519 22.892C75.0799 22.964 74.9839 23 74.8639 23H73.9999ZM81.2033 23C80.8913 23 80.6693 22.85 80.5373 22.55L77.2073 14.198L77.1713 14.018C77.1713 13.91 77.2073 13.82 77.2793 13.748C77.3513 13.676 77.4413 13.64 77.5493 13.64H78.4133C78.6173 13.64 78.7673 13.742 78.8633 13.946L81.5993 21.038L84.3353 13.946C84.4433 13.742 84.5873 13.64 84.7673 13.64H85.6493C85.7453 13.64 85.8293 13.676 85.9013 13.748C85.9853 13.82 86.0273 13.91 86.0273 14.018L85.9913 14.198L82.6433 22.55C82.5113 22.85 82.2893 23 81.9773 23H81.2033ZM88.3261 23C88.2061 23 88.1041 22.964 88.0201 22.892C87.9481 22.808 87.9121 22.706 87.9121 22.586V14.072C87.9121 13.952 87.9481 13.85 88.0201 13.766C88.1041 13.682 88.2061 13.64 88.3261 13.64H89.1541C89.2741 13.64 89.3761 13.682 89.4601 13.766C89.5441 13.85 89.5861 13.952 89.5861 14.072V14.864C90.0781 14.048 90.9181 13.64 92.1061 13.64H92.8081C92.9281 13.64 93.0241 13.682 93.0961 13.766C93.1801 13.838 93.2221 13.934 93.2221 14.054V14.792C93.2221 14.912 93.1801 15.008 93.0961 15.08C93.0241 15.152 92.9281 15.188 92.8081 15.188H91.7281C91.0801 15.188 90.5701 15.38 90.1981 15.764C89.8261 16.136 89.6401 16.646 89.6401 17.294V22.586C89.6401 22.706 89.5981 22.808 89.5141 22.892C89.4301 22.964 89.3281 23 89.2081 23H88.3261ZM97.2193 23.18C96.6313 23.18 96.0853 23.06 95.5813 22.82C95.0773 22.58 94.6753 22.256 94.3753 21.848C94.0873 21.428 93.9433 20.966 93.9433 20.462C93.9433 19.67 94.2673 19.022 94.9153 18.518C95.5753 18.002 96.4633 17.666 97.5793 17.51L100.261 17.132V16.61C100.261 15.386 99.5593 14.774 98.1553 14.774C97.6273 14.774 97.1953 14.888 96.8593 15.116C96.5233 15.332 96.2713 15.59 96.1033 15.89C96.0673 15.998 96.0193 16.076 95.9593 16.124C95.9113 16.172 95.8393 16.196 95.7433 16.196H94.9693C94.8613 16.196 94.7653 16.16 94.6813 16.088C94.6093 16.004 94.5733 15.908 94.5733 15.8C94.5853 15.512 94.7173 15.188 94.9693 14.828C95.2333 14.456 95.6353 14.138 96.1753 13.874C96.7153 13.598 97.3813 13.46 98.1733 13.46C99.5173 13.46 100.483 13.778 101.071 14.414C101.659 15.038 101.953 15.818 101.953 16.754V22.586C101.953 22.706 101.911 22.808 101.827 22.892C101.755 22.964 101.659 23 101.539 23H100.711C100.591 23 100.489 22.964 100.405 22.892C100.333 22.808 100.297 22.706 100.297 22.586V21.812C100.033 22.196 99.6493 22.52 99.1453 22.784C98.6413 23.048 97.9993 23.18 97.2193 23.18ZM97.5973 21.83C98.3773 21.83 99.0133 21.578 99.5053 21.074C100.009 20.558 100.261 19.82 100.261 18.86V18.356L98.1733 18.662C97.3213 18.782 96.6793 18.986 96.2473 19.274C95.8153 19.55 95.5993 19.904 95.5993 20.336C95.5993 20.816 95.7973 21.188 96.1933 21.452C96.5893 21.704 97.0573 21.83 97.5973 21.83ZM104.811 11.894C104.691 11.894 104.589 11.858 104.505 11.786C104.433 11.702 104.397 11.6 104.397 11.48V10.508C104.397 10.388 104.433 10.286 104.505 10.202C104.589 10.118 104.691 10.076 104.811 10.076H105.945C106.065 10.076 106.167 10.118 106.251 10.202C106.335 10.286 106.377 10.388 106.377 10.508V11.48C106.377 11.6 106.335 11.702 106.251 11.786C106.167 11.858 106.065 11.894 105.945 11.894H104.811ZM104.955 23C104.835 23 104.733 22.964 104.649 22.892C104.577 22.808 104.541 22.706 104.541 22.586V14.054C104.541 13.934 104.577 13.838 104.649 13.766C104.733 13.682 104.835 13.64 104.955 13.64H105.819C105.939 13.64 106.035 13.682 106.107 13.766C106.191 13.838 106.233 13.934 106.233 14.054V22.586C106.233 22.706 106.191 22.808 106.107 22.892C106.035 22.964 105.939 23 105.819 23H104.955ZM112.14 23.18C111.3 23.18 110.592 23.048 110.016 22.784C109.452 22.508 109.026 22.196 108.738 21.848C108.462 21.5 108.324 21.212 108.324 20.984C108.324 20.864 108.366 20.774 108.45 20.714C108.546 20.642 108.642 20.606 108.738 20.606H109.548C109.668 20.606 109.776 20.666 109.872 20.786C110.16 21.122 110.472 21.386 110.808 21.578C111.144 21.77 111.594 21.866 112.158 21.866C112.782 21.866 113.286 21.746 113.67 21.506C114.066 21.254 114.264 20.912 114.264 20.48C114.264 20.192 114.18 19.958 114.012 19.778C113.856 19.586 113.58 19.424 113.184 19.292C112.8 19.148 112.224 18.992 111.456 18.824C110.412 18.596 109.668 18.266 109.224 17.834C108.792 17.402 108.576 16.844 108.576 16.16C108.576 15.704 108.708 15.272 108.972 14.864C109.248 14.444 109.644 14.108 110.16 13.856C110.688 13.592 111.318 13.46 112.05 13.46C112.818 13.46 113.472 13.586 114.012 13.838C114.552 14.09 114.954 14.39 115.218 14.738C115.494 15.074 115.632 15.356 115.632 15.584C115.632 15.692 115.59 15.782 115.506 15.854C115.434 15.926 115.344 15.962 115.236 15.962H114.48C114.336 15.962 114.216 15.902 114.12 15.782C113.928 15.554 113.76 15.38 113.616 15.26C113.484 15.128 113.286 15.014 113.022 14.918C112.77 14.822 112.446 14.774 112.05 14.774C111.474 14.774 111.03 14.9 110.718 15.152C110.406 15.392 110.25 15.71 110.25 16.106C110.25 16.358 110.316 16.574 110.448 16.754C110.58 16.922 110.832 17.078 111.204 17.222C111.588 17.366 112.14 17.516 112.86 17.672C114 17.912 114.804 18.26 115.272 18.716C115.752 19.16 115.992 19.73 115.992 20.426C115.992 20.942 115.842 21.41 115.542 21.83C115.242 22.25 114.798 22.58 114.21 22.82C113.634 23.06 112.944 23.18 112.14 23.18ZM121.91 23.18C120.59 23.18 119.564 22.808 118.832 22.064C118.112 21.32 117.728 20.33 117.68 19.094L117.662 18.32L117.68 17.546C117.728 16.322 118.118 15.338 118.85 14.594C119.582 13.838 120.602 13.46 121.91 13.46C123.218 13.46 124.238 13.838 124.97 14.594C125.702 15.338 126.092 16.322 126.14 17.546C126.152 17.678 126.158 17.936 126.158 18.32C126.158 18.704 126.152 18.962 126.14 19.094C126.092 20.33 125.702 21.32 124.97 22.064C124.25 22.808 123.23 23.18 121.91 23.18ZM121.91 21.794C122.666 21.794 123.26 21.554 123.692 21.074C124.136 20.594 124.376 19.904 124.412 19.004C124.424 18.884 124.43 18.656 124.43 18.32C124.43 17.984 124.424 17.756 124.412 17.636C124.376 16.736 124.136 16.046 123.692 15.566C123.26 15.086 122.666 14.846 121.91 14.846C121.154 14.846 120.554 15.086 120.11 15.566C119.666 16.046 119.432 16.736 119.408 17.636L119.39 18.32L119.408 19.004C119.432 19.904 119.666 20.594 120.11 21.074C120.554 21.554 121.154 21.794 121.91 21.794ZM128.826 23C128.706 23 128.604 22.964 128.52 22.892C128.448 22.808 128.412 22.706 128.412 22.586V14.054C128.412 13.934 128.448 13.838 128.52 13.766C128.604 13.682 128.706 13.64 128.826 13.64H129.672C129.792 13.64 129.888 13.682 129.96 13.766C130.044 13.838 130.086 13.934 130.086 14.054V14.846C130.434 14.402 130.842 14.06 131.31 13.82C131.79 13.58 132.384 13.46 133.092 13.46C134.244 13.46 135.138 13.832 135.774 14.576C136.422 15.308 136.746 16.286 136.746 17.51V22.586C136.746 22.706 136.704 22.808 136.62 22.892C136.548 22.964 136.452 23 136.332 23H135.432C135.312 23 135.21 22.964 135.126 22.892C135.054 22.808 135.018 22.706 135.018 22.586V17.6C135.018 16.748 134.808 16.088 134.388 15.62C133.98 15.152 133.386 14.918 132.606 14.918C131.85 14.918 131.25 15.158 130.806 15.638C130.362 16.106 130.14 16.76 130.14 17.6V22.586C130.14 22.706 130.098 22.808 130.014 22.892C129.942 22.964 129.846 23 129.726 23H128.826Z" fill="white"/>
<path d="M248.296 23C248.176 23 248.074 22.964 247.99 22.892C247.918 22.808 247.882 22.706 247.882 22.586V22.01C247.882 21.734 248.032 21.47 248.332 21.218L252.148 17.402C253.072 16.634 253.708 16.01 254.056 15.53C254.404 15.038 254.578 14.522 254.578 13.982C254.578 13.286 254.38 12.74 253.984 12.344C253.6 11.948 253.036 11.75 252.292 11.75C251.596 11.75 251.038 11.96 250.618 12.38C250.198 12.788 249.94 13.334 249.844 14.018C249.82 14.162 249.76 14.27 249.664 14.342C249.58 14.402 249.484 14.432 249.376 14.432H248.44C248.332 14.432 248.242 14.402 248.17 14.342C248.098 14.27 248.062 14.186 248.062 14.09C248.086 13.442 248.26 12.824 248.584 12.236C248.908 11.636 249.382 11.15 250.006 10.778C250.642 10.394 251.404 10.202 252.292 10.202C253.648 10.202 254.668 10.556 255.352 11.264C256.048 11.96 256.396 12.848 256.396 13.928C256.396 14.684 256.204 15.368 255.82 15.98C255.448 16.58 254.866 17.228 254.074 17.924L250.618 21.434H256.234C256.366 21.434 256.468 21.476 256.54 21.56C256.624 21.632 256.666 21.728 256.666 21.848V22.586C256.666 22.706 256.624 22.808 256.54 22.892C256.456 22.964 256.354 23 256.234 23H248.296ZM259.184 23C259.064 23 258.962 22.964 258.878 22.892C258.806 22.808 258.77 22.706 258.77 22.586V21.29C258.77 21.17 258.806 21.074 258.878 21.002C258.962 20.918 259.064 20.876 259.184 20.876H260.48C260.6 20.876 260.702 20.918 260.786 21.002C260.87 21.074 260.912 21.17 260.912 21.29V22.586C260.912 22.706 260.87 22.808 260.786 22.892C260.702 22.964 260.6 23 260.48 23H259.184ZM263.957 23C263.837 23 263.735 22.964 263.651 22.892C263.579 22.808 263.543 22.706 263.543 22.586V10.832C263.543 10.7 263.579 10.598 263.651 10.526C263.735 10.442 263.837 10.4 263.957 10.4H271.301C271.433 10.4 271.535 10.442 271.607 10.526C271.691 10.598 271.733 10.7 271.733 10.832V11.552C271.733 11.672 271.691 11.774 271.607 11.858C271.535 11.93 271.433 11.966 271.301 11.966H265.289V16.16H270.941C271.073 16.16 271.175 16.202 271.247 16.286C271.331 16.358 271.373 16.46 271.373 16.592V17.312C271.373 17.432 271.331 17.534 271.247 17.618C271.163 17.69 271.061 17.726 270.941 17.726H265.289V22.586C265.289 22.706 265.247 22.808 265.163 22.892C265.079 22.964 264.977 23 264.857 23H263.957ZM275.903 23.18C275.315 23.18 274.769 23.06 274.265 22.82C273.761 22.58 273.359 22.256 273.059 21.848C272.771 21.428 272.627 20.966 272.627 20.462C272.627 19.67 272.951 19.022 273.599 18.518C274.259 18.002 275.147 17.666 276.263 17.51L278.945 17.132V16.61C278.945 15.386 278.243 14.774 276.839 14.774C276.311 14.774 275.879 14.888 275.543 15.116C275.207 15.332 274.955 15.59 274.787 15.89C274.751 15.998 274.703 16.076 274.643 16.124C274.595 16.172 274.523 16.196 274.427 16.196H273.653C273.545 16.196 273.449 16.16 273.365 16.088C273.293 16.004 273.257 15.908 273.257 15.8C273.269 15.512 273.401 15.188 273.653 14.828C273.917 14.456 274.319 14.138 274.859 13.874C275.399 13.598 276.065 13.46 276.857 13.46C278.201 13.46 279.167 13.778 279.755 14.414C280.343 15.038 280.637 15.818 280.637 16.754V22.586C280.637 22.706 280.595 22.808 280.511 22.892C280.439 22.964 280.343 23 280.223 23H279.395C279.275 23 279.173 22.964 279.089 22.892C279.017 22.808 278.981 22.706 278.981 22.586V21.812C278.717 22.196 278.333 22.52 277.829 22.784C277.325 23.048 276.683 23.18 275.903 23.18ZM276.281 21.83C277.061 21.83 277.697 21.578 278.189 21.074C278.693 20.558 278.945 19.82 278.945 18.86V18.356L276.857 18.662C276.005 18.782 275.363 18.986 274.931 19.274C274.499 19.55 274.283 19.904 274.283 20.336C274.283 20.816 274.481 21.188 274.877 21.452C275.273 21.704 275.741 21.83 276.281 21.83ZM287.005 23.18C285.721 23.18 284.713 22.82 283.981 22.1C283.261 21.368 282.877 20.348 282.829 19.04L282.811 18.32L282.829 17.6C282.877 16.292 283.261 15.278 283.981 14.558C284.713 13.826 285.721 13.46 287.005 13.46C287.869 13.46 288.601 13.616 289.201 13.928C289.801 14.24 290.245 14.624 290.533 15.08C290.833 15.536 290.995 15.992 291.019 16.448C291.031 16.568 290.995 16.664 290.911 16.736C290.827 16.808 290.725 16.844 290.605 16.844H289.741C289.621 16.844 289.531 16.82 289.471 16.772C289.411 16.724 289.351 16.628 289.291 16.484C289.087 15.908 288.799 15.5 288.427 15.26C288.055 15.008 287.587 14.882 287.023 14.882C286.279 14.882 285.685 15.116 285.241 15.584C284.809 16.04 284.575 16.742 284.539 17.69L284.521 18.338L284.539 18.95C284.575 19.91 284.809 20.618 285.241 21.074C285.673 21.53 286.267 21.758 287.023 21.758C287.587 21.758 288.055 21.638 288.427 21.398C288.799 21.146 289.087 20.732 289.291 20.156C289.351 20.012 289.411 19.916 289.471 19.868C289.531 19.808 289.621 19.778 289.741 19.778H290.605C290.725 19.778 290.827 19.82 290.911 19.904C290.995 19.976 291.031 20.072 291.019 20.192C290.995 20.636 290.833 21.092 290.533 21.56C290.245 22.016 289.801 22.4 289.201 22.712C288.613 23.024 287.881 23.18 287.005 23.18ZM296.81 23C294.914 23 293.966 21.944 293.966 19.832V15.08H292.562C292.442 15.08 292.34 15.044 292.256 14.972C292.184 14.888 292.148 14.786 292.148 14.666V14.054C292.148 13.934 292.184 13.838 292.256 13.766C292.34 13.682 292.442 13.64 292.562 13.64H293.966V10.634C293.966 10.514 294.002 10.418 294.074 10.346C294.158 10.262 294.26 10.22 294.38 10.22H295.226C295.346 10.22 295.442 10.262 295.514 10.346C295.598 10.418 295.64 10.514 295.64 10.634V13.64H297.872C297.992 13.64 298.088 13.682 298.16 13.766C298.244 13.838 298.286 13.934 298.286 14.054V14.666C298.286 14.786 298.244 14.888 298.16 14.972C298.088 15.044 297.992 15.08 297.872 15.08H295.64V19.706C295.64 20.306 295.742 20.762 295.946 21.074C296.15 21.374 296.486 21.524 296.954 21.524H298.052C298.172 21.524 298.268 21.566 298.34 21.65C298.424 21.722 298.466 21.818 298.466 21.938V22.586C298.466 22.706 298.424 22.808 298.34 22.892C298.268 22.964 298.172 23 298.052 23H296.81ZM303.679 23.18C302.539 23.18 301.657 22.814 301.033 22.082C300.409 21.338 300.097 20.354 300.097 19.13V14.054C300.097 13.934 300.133 13.838 300.205 13.766C300.289 13.682 300.391 13.64 300.511 13.64H301.411C301.531 13.64 301.627 13.682 301.699 13.766C301.783 13.838 301.825 13.934 301.825 14.054V19.04C301.825 20.828 302.605 21.722 304.165 21.722C304.921 21.722 305.521 21.488 305.965 21.02C306.409 20.54 306.631 19.88 306.631 19.04V14.054C306.631 13.934 306.667 13.838 306.739 13.766C306.823 13.682 306.925 13.64 307.045 13.64H307.945C308.065 13.64 308.161 13.682 308.233 13.766C308.305 13.838 308.341 13.934 308.341 14.054V22.586C308.341 22.706 308.305 22.808 308.233 22.892C308.161 22.964 308.065 23 307.945 23H307.099C306.979 23 306.877 22.964 306.793 22.892C306.721 22.808 306.685 22.706 306.685 22.586V21.794C306.349 22.25 305.941 22.598 305.461 22.838C304.981 23.066 304.387 23.18 303.679 23.18ZM311.43 23C311.31 23 311.208 22.964 311.124 22.892C311.052 22.808 311.016 22.706 311.016 22.586V14.072C311.016 13.952 311.052 13.85 311.124 13.766C311.208 13.682 311.31 13.64 311.43 13.64H312.258C312.378 13.64 312.48 13.682 312.564 13.766C312.648 13.85 312.69 13.952 312.69 14.072V14.864C313.182 14.048 314.022 13.64 315.21 13.64H315.912C316.032 13.64 316.128 13.682 316.2 13.766C316.284 13.838 316.326 13.934 316.326 14.054V14.792C316.326 14.912 316.284 15.008 316.2 15.08C316.128 15.152 316.032 15.188 315.912 15.188H314.832C314.184 15.188 313.674 15.38 313.302 15.764C312.93 16.136 312.744 16.646 312.744 17.294V22.586C312.744 22.706 312.702 22.808 312.618 22.892C312.534 22.964 312.432 23 312.312 23H311.43ZM320.323 23.18C319.735 23.18 319.189 23.06 318.685 22.82C318.181 22.58 317.779 22.256 317.479 21.848C317.191 21.428 317.047 20.966 317.047 20.462C317.047 19.67 317.371 19.022 318.019 18.518C318.679 18.002 319.567 17.666 320.683 17.51L323.365 17.132V16.61C323.365 15.386 322.663 14.774 321.259 14.774C320.731 14.774 320.299 14.888 319.963 15.116C319.627 15.332 319.375 15.59 319.207 15.89C319.171 15.998 319.123 16.076 319.063 16.124C319.015 16.172 318.943 16.196 318.847 16.196H318.073C317.965 16.196 317.869 16.16 317.785 16.088C317.713 16.004 317.677 15.908 317.677 15.8C317.689 15.512 317.821 15.188 318.073 14.828C318.337 14.456 318.739 14.138 319.279 13.874C319.819 13.598 320.485 13.46 321.277 13.46C322.621 13.46 323.587 13.778 324.175 14.414C324.763 15.038 325.057 15.818 325.057 16.754V22.586C325.057 22.706 325.015 22.808 324.931 22.892C324.859 22.964 324.763 23 324.643 23H323.815C323.695 23 323.593 22.964 323.509 22.892C323.437 22.808 323.401 22.706 323.401 22.586V21.812C323.137 22.196 322.753 22.52 322.249 22.784C321.745 23.048 321.103 23.18 320.323 23.18ZM320.701 21.83C321.481 21.83 322.117 21.578 322.609 21.074C323.113 20.558 323.365 19.82 323.365 18.86V18.356L321.277 18.662C320.425 18.782 319.783 18.986 319.351 19.274C318.919 19.55 318.703 19.904 318.703 20.336C318.703 20.816 318.901 21.188 319.297 21.452C319.693 21.704 320.161 21.83 320.701 21.83ZM331.211 23C329.315 23 328.367 21.944 328.367 19.832V15.08H326.963C326.843 15.08 326.741 15.044 326.657 14.972C326.585 14.888 326.549 14.786 326.549 14.666V14.054C326.549 13.934 326.585 13.838 326.657 13.766C326.741 13.682 326.843 13.64 326.963 13.64H328.367V10.634C328.367 10.514 328.403 10.418 328.475 10.346C328.559 10.262 328.661 10.22 328.781 10.22H329.627C329.747 10.22 329.843 10.262 329.915 10.346C329.999 10.418 330.041 10.514 330.041 10.634V13.64H332.273C332.393 13.64 332.489 13.682 332.561 13.766C332.645 13.838 332.687 13.934 332.687 14.054V14.666C332.687 14.786 332.645 14.888 332.561 14.972C332.489 15.044 332.393 15.08 332.273 15.08H330.041V19.706C330.041 20.306 330.143 20.762 330.347 21.074C330.551 21.374 330.887 21.524 331.355 21.524H332.453C332.573 21.524 332.669 21.566 332.741 21.65C332.825 21.722 332.867 21.818 332.867 21.938V22.586C332.867 22.706 332.825 22.808 332.741 22.892C332.669 22.964 332.573 23 332.453 23H331.211ZM334.858 11.894C334.738 11.894 334.636 11.858 334.552 11.786C334.48 11.702 334.444 11.6 334.444 11.48V10.508C334.444 10.388 334.48 10.286 334.552 10.202C334.636 10.118 334.738 10.076 334.858 10.076H335.992C336.112 10.076 336.214 10.118 336.298 10.202C336.382 10.286 336.424 10.388 336.424 10.508V11.48C336.424 11.6 336.382 11.702 336.298 11.786C336.214 11.858 336.112 11.894 335.992 11.894H334.858ZM335.002 23C334.882 23 334.78 22.964 334.696 22.892C334.624 22.808 334.588 22.706 334.588 22.586V14.054C334.588 13.934 334.624 13.838 334.696 13.766C334.78 13.682 334.882 13.64 335.002 13.64H335.866C335.986 13.64 336.082 13.682 336.154 13.766C336.238 13.838 336.28 13.934 336.28 14.054V22.586C336.28 22.706 336.238 22.808 336.154 22.892C336.082 22.964 335.986 23 335.866 23H335.002ZM342.781 23.18C341.461 23.18 340.435 22.808 339.703 22.064C338.983 21.32 338.599 20.33 338.551 19.094L338.533 18.32L338.551 17.546C338.599 16.322 338.989 15.338 339.721 14.594C340.453 13.838 341.473 13.46 342.781 13.46C344.089 13.46 345.109 13.838 345.841 14.594C346.573 15.338 346.963 16.322 347.011 17.546C347.023 17.678 347.029 17.936 347.029 18.32C347.029 18.704 347.023 18.962 347.011 19.094C346.963 20.33 346.573 21.32 345.841 22.064C345.121 22.808 344.101 23.18 342.781 23.18ZM342.781 21.794C343.537 21.794 344.131 21.554 344.563 21.074C345.007 20.594 345.247 19.904 345.283 19.004C345.295 18.884 345.301 18.656 345.301 18.32C345.301 17.984 345.295 17.756 345.283 17.636C345.247 16.736 345.007 16.046 344.563 15.566C344.131 15.086 343.537 14.846 342.781 14.846C342.025 14.846 341.425 15.086 340.981 15.566C340.537 16.046 340.303 16.736 340.279 17.636L340.261 18.32L340.279 19.004C340.303 19.904 340.537 20.594 340.981 21.074C341.425 21.554 342.025 21.794 342.781 21.794ZM349.697 23C349.577 23 349.475 22.964 349.391 22.892C349.319 22.808 349.283 22.706 349.283 22.586V14.054C349.283 13.934 349.319 13.838 349.391 13.766C349.475 13.682 349.577 13.64 349.697 13.64H350.543C350.663 13.64 350.759 13.682 350.831 13.766C350.915 13.838 350.957 13.934 350.957 14.054V14.846C351.305 14.402 351.713 14.06 352.181 13.82C352.661 13.58 353.255 13.46 353.963 13.46C355.115 13.46 356.009 13.832 356.645 14.576C357.293 15.308 357.617 16.286 357.617 17.51V22.586C357.617 22.706 357.575 22.808 357.491 22.892C357.419 22.964 357.323 23 357.203 23H356.303C356.183 23 356.081 22.964 355.997 22.892C355.925 22.808 355.889 22.706 355.889 22.586V17.6C355.889 16.748 355.679 16.088 355.259 15.62C354.851 15.152 354.257 14.918 353.477 14.918C352.721 14.918 352.121 15.158 351.677 15.638C351.233 16.106 351.011 16.76 351.011 17.6V22.586C351.011 22.706 350.969 22.808 350.885 22.892C350.813 22.964 350.717 23 350.597 23H349.697Z" fill="white"/>
<path d="M448.711 23.18C447.655 23.18 446.755 23.012 446.011 22.676C445.279 22.34 444.727 21.92 444.355 21.416C443.995 20.9 443.803 20.372 443.779 19.832C443.779 19.724 443.815 19.64 443.887 19.58C443.971 19.508 444.067 19.472 444.175 19.472H445.795C446.059 19.472 446.233 19.592 446.317 19.832C446.581 20.696 447.385 21.128 448.729 21.128C449.461 21.128 450.037 20.96 450.457 20.624C450.877 20.276 451.087 19.784 451.087 19.148C451.087 17.948 450.337 17.348 448.837 17.348H446.983C446.851 17.348 446.743 17.306 446.659 17.222C446.575 17.138 446.533 17.036 446.533 16.916V16.16C446.533 15.968 446.617 15.788 446.785 15.62L450.007 12.47H444.859C444.739 12.47 444.637 12.428 444.553 12.344C444.469 12.26 444.427 12.158 444.427 12.038V10.85C444.427 10.718 444.463 10.61 444.535 10.526C444.619 10.442 444.727 10.4 444.859 10.4H452.581C452.713 10.4 452.821 10.442 452.905 10.526C452.989 10.61 453.031 10.718 453.031 10.85V11.93C453.031 12.11 452.953 12.278 452.797 12.434L449.683 15.638L449.899 15.656C451.051 15.752 451.963 16.1 452.635 16.7C453.319 17.3 453.661 18.158 453.661 19.274C453.661 20.066 453.445 20.756 453.013 21.344C452.593 21.932 452.005 22.388 451.249 22.712C450.505 23.024 449.659 23.18 448.711 23.18ZM455.963 23C455.843 23 455.741 22.958 455.657 22.874C455.573 22.79 455.531 22.688 455.531 22.568V20.786C455.531 20.666 455.573 20.564 455.657 20.48C455.741 20.384 455.843 20.336 455.963 20.336H457.763C457.883 20.336 457.985 20.384 458.069 20.48C458.153 20.564 458.195 20.666 458.195 20.786V22.568C458.195 22.688 458.153 22.79 458.069 22.874C457.985 22.958 457.883 23 457.763 23H455.963ZM463.183 23C462.835 23 462.607 22.832 462.499 22.496L458.647 10.94L458.611 10.778C458.611 10.67 458.647 10.58 458.719 10.508C458.791 10.436 458.881 10.4 458.989 10.4H460.573C460.729 10.4 460.849 10.442 460.933 10.526C461.029 10.598 461.095 10.688 461.131 10.796L464.173 20.066L467.215 10.796C467.239 10.7 467.299 10.61 467.395 10.526C467.491 10.442 467.617 10.4 467.773 10.4H469.357C469.453 10.4 469.537 10.436 469.609 10.508C469.693 10.58 469.735 10.67 469.735 10.778L469.699 10.94L465.847 22.496C465.739 22.832 465.511 23 465.163 23H463.183ZM473.105 23.18C472.493 23.18 471.929 23.06 471.413 22.82C470.909 22.568 470.507 22.232 470.207 21.812C469.919 21.392 469.775 20.93 469.775 20.426C469.775 19.61 470.105 18.95 470.765 18.446C471.425 17.942 472.331 17.6 473.483 17.42L475.949 17.06V16.682C475.949 16.154 475.817 15.758 475.553 15.494C475.289 15.23 474.863 15.098 474.275 15.098C473.879 15.098 473.555 15.176 473.303 15.332C473.063 15.476 472.871 15.62 472.727 15.764C472.583 15.92 472.487 16.022 472.439 16.07C472.391 16.214 472.301 16.286 472.169 16.286H470.783C470.675 16.286 470.579 16.25 470.495 16.178C470.423 16.106 470.387 16.01 470.387 15.89C470.399 15.59 470.543 15.248 470.819 14.864C471.107 14.48 471.545 14.15 472.133 13.874C472.721 13.598 473.441 13.46 474.293 13.46C475.709 13.46 476.741 13.778 477.389 14.414C478.037 15.05 478.361 15.884 478.361 16.916V22.568C478.361 22.688 478.319 22.79 478.235 22.874C478.163 22.958 478.061 23 477.929 23H476.471C476.351 23 476.249 22.958 476.165 22.874C476.081 22.79 476.039 22.688 476.039 22.568V21.866C475.775 22.25 475.397 22.568 474.905 22.82C474.425 23.06 473.825 23.18 473.105 23.18ZM473.717 21.47C474.377 21.47 474.917 21.254 475.337 20.822C475.757 20.39 475.967 19.76 475.967 18.932V18.554L474.167 18.842C473.471 18.95 472.943 19.124 472.583 19.364C472.235 19.604 472.061 19.898 472.061 20.246C472.061 20.63 472.223 20.93 472.547 21.146C472.871 21.362 473.261 21.47 473.717 21.47ZM481.12 23C481 23 480.898 22.958 480.814 22.874C480.73 22.79 480.688 22.688 480.688 22.568V10.652C480.688 10.52 480.73 10.418 480.814 10.346C480.898 10.262 481 10.22 481.12 10.22H482.614C482.746 10.22 482.848 10.262 482.92 10.346C483.004 10.418 483.046 10.52 483.046 10.652V22.568C483.046 22.688 483.004 22.79 482.92 22.874C482.848 22.958 482.746 23 482.614 23H481.12ZM485.794 12.092C485.674 12.092 485.572 12.05 485.488 11.966C485.404 11.882 485.362 11.78 485.362 11.66V10.364C485.362 10.244 485.404 10.142 485.488 10.058C485.572 9.974 485.674 9.932 485.794 9.932H487.432C487.552 9.932 487.654 9.974 487.738 10.058C487.834 10.142 487.882 10.244 487.882 10.364V11.66C487.882 11.78 487.84 11.882 487.756 11.966C487.672 12.05 487.564 12.092 487.432 12.092H485.794ZM485.866 23C485.746 23 485.644 22.958 485.56 22.874C485.476 22.79 485.434 22.688 485.434 22.568V14.072C485.434 13.952 485.476 13.85 485.56 13.766C485.644 13.682 485.746 13.64 485.866 13.64H487.36C487.492 13.64 487.594 13.682 487.666 13.766C487.75 13.838 487.792 13.94 487.792 14.072V22.568C487.792 22.688 487.75 22.79 487.666 22.874C487.594 22.958 487.492 23 487.36 23H485.866ZM493.654 23.18C492.442 23.18 491.512 22.79 490.864 22.01C490.216 21.23 489.868 20.192 489.82 18.896L489.802 18.302L489.82 17.726C489.856 16.466 490.198 15.44 490.846 14.648C491.506 13.856 492.442 13.46 493.654 13.46C494.818 13.46 495.742 13.856 496.426 14.648V10.652C496.426 10.52 496.468 10.418 496.552 10.346C496.636 10.262 496.738 10.22 496.858 10.22H498.388C498.52 10.22 498.622 10.262 498.694 10.346C498.778 10.418 498.82 10.52 498.82 10.652V22.568C498.82 22.688 498.778 22.79 498.694 22.874C498.622 22.958 498.52 23 498.388 23H496.966C496.846 23 496.744 22.958 496.66 22.874C496.576 22.79 496.534 22.688 496.534 22.568V21.902C495.85 22.754 494.89 23.18 493.654 23.18ZM494.32 21.254C495.016 21.254 495.532 21.032 495.868 20.588C496.204 20.144 496.39 19.598 496.426 18.95C496.438 18.806 496.444 18.572 496.444 18.248C496.444 17.936 496.438 17.708 496.426 17.564C496.402 16.964 496.21 16.454 495.85 16.034C495.502 15.602 494.992 15.386 494.32 15.386C493.024 15.386 492.334 16.184 492.25 17.78L492.232 18.32L492.25 18.86C492.334 20.456 493.024 21.254 494.32 21.254ZM503.937 23.18C503.325 23.18 502.761 23.06 502.245 22.82C501.741 22.568 501.339 22.232 501.039 21.812C500.751 21.392 500.607 20.93 500.607 20.426C500.607 19.61 500.937 18.95 501.597 18.446C502.257 17.942 503.163 17.6 504.315 17.42L506.781 17.06V16.682C506.781 16.154 506.649 15.758 506.385 15.494C506.121 15.23 505.695 15.098 505.107 15.098C504.711 15.098 504.387 15.176 504.135 15.332C503.895 15.476 503.703 15.62 503.559 15.764C503.415 15.92 503.319 16.022 503.271 16.07C503.223 16.214 503.133 16.286 503.001 16.286H501.615C501.507 16.286 501.411 16.25 501.327 16.178C501.255 16.106 501.219 16.01 501.219 15.89C501.231 15.59 501.375 15.248 501.651 14.864C501.939 14.48 502.377 14.15 502.965 13.874C503.553 13.598 504.273 13.46 505.125 13.46C506.541 13.46 507.573 13.778 508.221 14.414C508.869 15.05 509.193 15.884 509.193 16.916V22.568C509.193 22.688 509.151 22.79 509.067 22.874C508.995 22.958 508.893 23 508.761 23H507.303C507.183 23 507.081 22.958 506.997 22.874C506.913 22.79 506.871 22.688 506.871 22.568V21.866C506.607 22.25 506.229 22.568 505.737 22.82C505.257 23.06 504.657 23.18 503.937 23.18ZM504.549 21.47C505.209 21.47 505.749 21.254 506.169 20.822C506.589 20.39 506.799 19.76 506.799 18.932V18.554L504.999 18.842C504.303 18.95 503.775 19.124 503.415 19.364C503.067 19.604 502.893 19.898 502.893 20.246C502.893 20.63 503.055 20.93 503.379 21.146C503.703 21.362 504.093 21.47 504.549 21.47ZM515.645 23C514.553 23 513.731 22.718 513.179 22.154C512.639 21.578 512.369 20.738 512.369 19.634V15.548H510.947C510.827 15.548 510.725 15.506 510.641 15.422C510.557 15.326 510.515 15.218 510.515 15.098V14.072C510.515 13.952 510.557 13.85 510.641 13.766C510.725 13.682 510.827 13.64 510.947 13.64H512.369V10.652C512.369 10.52 512.411 10.418 512.495 10.346C512.579 10.262 512.681 10.22 512.801 10.22H514.259C514.391 10.22 514.493 10.262 514.565 10.346C514.649 10.418 514.691 10.52 514.691 10.652V13.64H516.941C517.073 13.64 517.175 13.682 517.247 13.766C517.331 13.838 517.373 13.94 517.373 14.072V15.098C517.373 15.23 517.331 15.338 517.247 15.422C517.163 15.506 517.061 15.548 516.941 15.548H514.691V19.454C514.691 19.97 514.781 20.36 514.961 20.624C515.141 20.888 515.441 21.02 515.861 21.02H517.103C517.223 21.02 517.325 21.062 517.409 21.146C517.493 21.23 517.535 21.332 517.535 21.452V22.568C517.535 22.688 517.493 22.79 517.409 22.874C517.337 22.958 517.235 23 517.103 23H515.645ZM519.491 12.092C519.371 12.092 519.269 12.05 519.185 11.966C519.101 11.882 519.059 11.78 519.059 11.66V10.364C519.059 10.244 519.101 10.142 519.185 10.058C519.269 9.974 519.371 9.932 519.491 9.932H521.129C521.249 9.932 521.351 9.974 521.435 10.058C521.531 10.142 521.579 10.244 521.579 10.364V11.66C521.579 11.78 521.537 11.882 521.453 11.966C521.369 12.05 521.261 12.092 521.129 12.092H519.491ZM519.563 23C519.443 23 519.341 22.958 519.257 22.874C519.173 22.79 519.131 22.688 519.131 22.568V14.072C519.131 13.952 519.173 13.85 519.257 13.766C519.341 13.682 519.443 13.64 519.563 13.64H521.057C521.189 13.64 521.291 13.682 521.363 13.766C521.447 13.838 521.489 13.94 521.489 14.072V22.568C521.489 22.688 521.447 22.79 521.363 22.874C521.291 22.958 521.189 23 521.057 23H519.563ZM528.017 23.18C526.613 23.18 525.527 22.82 524.759 22.1C523.991 21.368 523.577 20.372 523.517 19.112L523.499 18.32L523.517 17.528C523.577 16.28 523.997 15.29 524.777 14.558C525.557 13.826 526.637 13.46 528.017 13.46C529.397 13.46 530.477 13.826 531.257 14.558C532.037 15.29 532.457 16.28 532.517 17.528C532.529 17.672 532.535 17.936 532.535 18.32C532.535 18.704 532.529 18.968 532.517 19.112C532.457 20.372 532.043 21.368 531.275 22.1C530.507 22.82 529.421 23.18 528.017 23.18ZM528.017 21.398C528.653 21.398 529.145 21.2 529.493 20.804C529.841 20.396 530.033 19.802 530.069 19.022C530.081 18.902 530.087 18.668 530.087 18.32C530.087 17.972 530.081 17.738 530.069 17.618C530.033 16.838 529.841 16.25 529.493 15.854C529.145 15.446 528.653 15.242 528.017 15.242C527.381 15.242 526.889 15.446 526.541 15.854C526.193 16.25 526.001 16.838 525.965 17.618L525.947 18.32L525.965 19.022C526.001 19.802 526.193 20.396 526.541 20.804C526.889 21.2 527.381 21.398 528.017 21.398ZM534.962 23C534.842 23 534.74 22.958 534.656 22.874C534.572 22.79 534.53 22.688 534.53 22.568V14.072C534.53 13.952 534.572 13.85 534.656 13.766C534.74 13.682 534.842 13.64 534.962 13.64H536.438C536.558 13.64 536.66 13.682 536.744 13.766C536.828 13.85 536.87 13.952 536.87 14.072V14.81C537.578 13.91 538.58 13.46 539.876 13.46C540.98 13.46 541.856 13.826 542.504 14.558C543.152 15.278 543.476 16.262 543.476 17.51V22.568C543.476 22.688 543.434 22.79 543.35 22.874C543.278 22.958 543.176 23 543.044 23H541.46C541.34 23 541.238 22.958 541.154 22.874C541.07 22.79 541.028 22.688 541.028 22.568V17.618C541.028 16.91 540.854 16.364 540.506 15.98C540.17 15.584 539.678 15.386 539.03 15.386C538.394 15.386 537.89 15.584 537.518 15.98C537.158 16.376 536.978 16.922 536.978 17.618V22.568C536.978 22.688 536.936 22.79 536.852 22.874C536.78 22.958 536.678 23 536.546 23H534.962Z" fill="white"/>
</svg>
