<svg width="290" height="36" viewBox="0 0 290 36" fill="none" xmlns="http://www.w3.org/2000/svg">
<path d="M1.14258 18V1H264.222L289 18L264.222 35H1.14258V18Z" fill="#398172" stroke="black"/>
<path d="M29.6916 24C29.5849 24 29.4942 23.9627 29.4196 23.888C29.3449 23.8133 29.3076 23.7227 29.3076 23.616V13.2C29.3076 13.0827 29.3396 12.9867 29.4036 12.912C29.4782 12.8373 29.5742 12.8 29.6916 12.8H36.7316C36.8489 12.8 36.9449 12.8373 37.0196 12.912C37.0942 12.9867 37.1316 13.0827 37.1316 13.2V14.256C37.1316 14.3733 37.0942 14.4693 37.0196 14.544C36.9449 14.608 36.8489 14.64 36.7316 14.64H31.4676V17.472H36.3796C36.4969 17.472 36.5929 17.5093 36.6676 17.584C36.7422 17.648 36.7796 17.7387 36.7796 17.856V18.848C36.7796 18.9653 36.7422 19.0613 36.6676 19.136C36.5929 19.2 36.4969 19.232 36.3796 19.232H31.4676V22.16H36.8596C36.9769 22.16 37.0729 22.1973 37.1476 22.272C37.2222 22.3467 37.2596 22.4427 37.2596 22.56V23.616C37.2596 23.7333 37.2222 23.8293 37.1476 23.904C37.0729 23.968 36.9769 24 36.8596 24H29.6916ZM32.3156 12C32.1449 12 32.0596 11.9147 32.0596 11.744C32.0596 11.6587 32.0862 11.5893 32.1396 11.536L33.4356 9.952C33.5422 9.83467 33.6329 9.76 33.7076 9.728C33.7822 9.68533 33.8889 9.664 34.0276 9.664H35.7396C35.9422 9.664 36.0436 9.76533 36.0436 9.968C36.0436 10.0427 36.0169 10.1067 35.9636 10.16L33.9796 11.792C33.8836 11.8667 33.7929 11.92 33.7076 11.952C33.6329 11.984 33.5369 12 33.4196 12H32.3156ZM42.7193 24C41.7487 24 41.018 23.7493 40.5273 23.248C40.0473 22.736 39.8073 21.9893 39.8073 21.008V17.376H38.5433C38.4367 17.376 38.346 17.3387 38.2713 17.264C38.1967 17.1787 38.1593 17.0827 38.1593 16.976V16.064C38.1593 15.9573 38.1967 15.8667 38.2713 15.792C38.346 15.7173 38.4367 15.68 38.5433 15.68H39.8073V13.024C39.8073 12.9067 39.8447 12.816 39.9193 12.752C39.994 12.6773 40.0847 12.64 40.1913 12.64H41.4873C41.6047 12.64 41.6953 12.6773 41.7593 12.752C41.834 12.816 41.8713 12.9067 41.8713 13.024V15.68H43.8713C43.9887 15.68 44.0793 15.7173 44.1433 15.792C44.218 15.856 44.2553 15.9467 44.2553 16.064V16.976C44.2553 17.0933 44.218 17.1893 44.1433 17.264C44.0687 17.3387 43.978 17.376 43.8713 17.376H41.8713V20.848C41.8713 21.3067 41.9513 21.6533 42.1113 21.888C42.2713 22.1227 42.538 22.24 42.9113 22.24H44.0153C44.122 22.24 44.2127 22.2773 44.2873 22.352C44.362 22.4267 44.3993 22.5173 44.3993 22.624V23.616C44.3993 23.7227 44.362 23.8133 44.2873 23.888C44.2233 23.9627 44.1327 24 44.0153 24H42.7193ZM48.2347 24.16C47.6907 24.16 47.1894 24.0533 46.7307 23.84C46.2827 23.616 45.9254 23.3173 45.6587 22.944C45.4027 22.5707 45.2747 22.16 45.2747 21.712C45.2747 20.9867 45.568 20.4 46.1547 19.952C46.7414 19.504 47.5467 19.2 48.5707 19.04L50.7627 18.72V18.384C50.7627 17.9147 50.6454 17.5627 50.4107 17.328C50.176 17.0933 49.7974 16.976 49.2747 16.976C48.9227 16.976 48.6347 17.0453 48.4107 17.184C48.1974 17.312 48.0267 17.44 47.8987 17.568C47.7707 17.7067 47.6854 17.7973 47.6427 17.84C47.6 17.968 47.52 18.032 47.4027 18.032H46.1707C46.0747 18.032 45.9894 18 45.9147 17.936C45.8507 17.872 45.8187 17.7867 45.8187 17.68C45.8294 17.4133 45.9574 17.1093 46.2027 16.768C46.4587 16.4267 46.848 16.1333 47.3707 15.888C47.8934 15.6427 48.5334 15.52 49.2907 15.52C50.5494 15.52 51.4667 15.8027 52.0427 16.368C52.6187 16.9333 52.9067 17.6747 52.9067 18.592V23.616C52.9067 23.7227 52.8694 23.8133 52.7947 23.888C52.7307 23.9627 52.64 24 52.5227 24H51.2267C51.12 24 51.0294 23.9627 50.9547 23.888C50.88 23.8133 50.8427 23.7227 50.8427 23.616V22.992C50.608 23.3333 50.272 23.616 49.8347 23.84C49.408 24.0533 48.8747 24.16 48.2347 24.16ZM48.7787 22.64C49.3654 22.64 49.8454 22.448 50.2187 22.064C50.592 21.68 50.7787 21.12 50.7787 20.384V20.048L49.1787 20.304C48.56 20.4 48.0907 20.5547 47.7707 20.768C47.4614 20.9813 47.3067 21.2427 47.3067 21.552C47.3067 21.8933 47.4507 22.16 47.7387 22.352C48.0267 22.544 48.3734 22.64 48.7787 22.64ZM55.3593 27.04C55.2527 27.04 55.162 27.0027 55.0873 26.928C55.0127 26.864 54.9753 26.7733 54.9753 26.656V16.064C54.9753 15.9467 55.0127 15.856 55.0873 15.792C55.162 15.7173 55.2527 15.68 55.3593 15.68H56.6233C56.7407 15.68 56.8313 15.7173 56.8953 15.792C56.97 15.856 57.0073 15.9467 57.0073 16.064V16.704C57.6047 15.9147 58.458 15.52 59.5673 15.52C60.6447 15.52 61.4713 15.8613 62.0473 16.544C62.6233 17.216 62.9327 18.128 62.9753 19.28C62.986 19.408 62.9913 19.5947 62.9913 19.84C62.9913 20.096 62.986 20.288 62.9753 20.416C62.9327 21.536 62.6233 22.4427 62.0473 23.136C61.4713 23.8187 60.6447 24.16 59.5673 24.16C58.49 24.16 57.6687 23.7813 57.1033 23.024V26.656C57.1033 26.7733 57.066 26.864 56.9913 26.928C56.9273 27.0027 56.8367 27.04 56.7193 27.04H55.3593ZM58.9753 22.448C60.1273 22.448 60.7407 21.7387 60.8153 20.32C60.826 20.2133 60.8313 20.0533 60.8313 19.84C60.8313 19.6267 60.826 19.4667 60.8153 19.36C60.7407 17.9413 60.1273 17.232 58.9753 17.232C58.3567 17.232 57.898 17.4293 57.5993 17.824C57.3007 18.2187 57.1353 18.704 57.1033 19.28L57.0873 19.888L57.1033 20.512C57.1247 21.0453 57.29 21.504 57.5993 21.888C57.9193 22.2613 58.378 22.448 58.9753 22.448ZM68.3714 24.16C67.1874 24.16 66.2434 23.8187 65.5394 23.136C64.8461 22.4427 64.4781 21.472 64.4354 20.224L64.4194 19.824L64.4354 19.424C64.4888 18.208 64.8621 17.2533 65.5554 16.56C66.2594 15.8667 67.1981 15.52 68.3714 15.52C69.6301 15.52 70.6008 15.904 71.2834 16.672C71.9768 17.44 72.3234 18.464 72.3234 19.744V20.08C72.3234 20.1867 72.2861 20.2773 72.2114 20.352C72.1368 20.4267 72.0408 20.464 71.9234 20.464H66.6114V20.592C66.6328 21.1787 66.7928 21.6747 67.0914 22.08C67.4008 22.4747 67.8221 22.672 68.3554 22.672C68.9848 22.672 69.4914 22.4267 69.8754 21.936C69.9714 21.8187 70.0461 21.744 70.0994 21.712C70.1634 21.68 70.2541 21.664 70.3714 21.664H71.7474C71.8434 21.664 71.9234 21.696 71.9874 21.76C72.0621 21.8133 72.0994 21.8827 72.0994 21.968C72.0994 22.224 71.9448 22.528 71.6354 22.88C71.3368 23.2213 70.9048 23.52 70.3394 23.776C69.7741 24.032 69.1181 24.16 68.3714 24.16ZM70.1474 19.12V19.072C70.1474 18.4427 69.9874 17.936 69.6674 17.552C69.3581 17.168 68.9261 16.976 68.3714 16.976C67.8168 16.976 67.3848 17.168 67.0754 17.552C66.7661 17.936 66.6114 18.4427 66.6114 19.072V19.12H70.1474ZM77.7261 24C77.6194 24 77.5287 23.9627 77.4541 23.888C77.3794 23.8133 77.3421 23.7227 77.3421 23.616V22.8C77.3421 22.512 77.4754 22.2613 77.7421 22.048L80.2701 19.536C81.3687 18.672 82.1314 18 82.5581 17.52C82.9954 17.0293 83.2141 16.5493 83.2141 16.08C83.2141 15.5787 83.0754 15.184 82.7981 14.896C82.5314 14.608 82.1261 14.464 81.5821 14.464C81.0487 14.464 80.6274 14.624 80.3181 14.944C80.0087 15.2533 79.8167 15.6587 79.7421 16.16C79.7101 16.288 79.6514 16.384 79.5661 16.448C79.4807 16.5013 79.3847 16.528 79.2781 16.528H77.8541C77.7581 16.528 77.6781 16.496 77.6141 16.432C77.5501 16.368 77.5181 16.2933 77.5181 16.208C77.5394 15.5787 77.7101 14.992 78.0301 14.448C78.3501 13.8933 78.8141 13.4507 79.4221 13.12C80.0301 12.7787 80.7447 12.608 81.5661 12.608C82.4194 12.608 83.1394 12.7573 83.7261 13.056C84.3234 13.344 84.7714 13.744 85.0701 14.256C85.3687 14.768 85.5181 15.3493 85.5181 16C85.5181 16.7147 85.3154 17.36 84.9101 17.936C84.5154 18.512 83.9074 19.1307 83.0861 19.792L80.8141 22.096H85.3741C85.4914 22.096 85.5821 22.1333 85.6461 22.208C85.7207 22.272 85.7581 22.3627 85.7581 22.48V23.616C85.7581 23.7227 85.7207 23.8133 85.6461 23.888C85.5821 23.9627 85.4914 24 85.3741 24H77.7261ZM94.3286 24.16C93.2512 24.16 92.4246 23.8133 91.8486 23.12C91.2726 22.4267 90.9632 21.504 90.9206 20.352L90.9046 19.824L90.9206 19.312C90.9526 18.192 91.2566 17.28 91.8326 16.576C92.4192 15.872 93.2512 15.52 94.3286 15.52C95.3632 15.52 96.1846 15.872 96.7926 16.576V13.024C96.7926 12.9067 96.8299 12.816 96.9046 12.752C96.9792 12.6773 97.0699 12.64 97.1766 12.64H98.5366C98.6539 12.64 98.7446 12.6773 98.8086 12.752C98.8832 12.816 98.9206 12.9067 98.9206 13.024V23.616C98.9206 23.7227 98.8832 23.8133 98.8086 23.888C98.7446 23.9627 98.6539 24 98.5366 24H97.2726C97.1659 24 97.0752 23.9627 97.0006 23.888C96.9259 23.8133 96.8886 23.7227 96.8886 23.616V23.024C96.2806 23.7813 95.4272 24.16 94.3286 24.16ZM94.9206 22.448C95.5392 22.448 95.9979 22.2507 96.2966 21.856C96.5952 21.4613 96.7606 20.976 96.7926 20.4C96.8032 20.272 96.8086 20.064 96.8086 19.776C96.8086 19.4987 96.8032 19.296 96.7926 19.168C96.7712 18.6347 96.6006 18.1813 96.2806 17.808C95.9712 17.424 95.5179 17.232 94.9206 17.232C93.7686 17.232 93.1552 17.9413 93.0806 19.36L93.0646 19.84L93.0806 20.32C93.1552 21.7387 93.7686 22.448 94.9206 22.448ZM108.293 24.16C107.109 24.16 106.165 23.8187 105.461 23.136C104.768 22.4427 104.4 21.472 104.357 20.224L104.341 19.824L104.357 19.424C104.411 18.208 104.784 17.2533 105.477 16.56C106.181 15.8667 107.12 15.52 108.293 15.52C109.552 15.52 110.523 15.904 111.205 16.672C111.899 17.44 112.245 18.464 112.245 19.744V20.08C112.245 20.1867 112.208 20.2773 112.133 20.352C112.059 20.4267 111.963 20.464 111.845 20.464H106.533V20.592C106.555 21.1787 106.715 21.6747 107.013 22.08C107.323 22.4747 107.744 22.672 108.277 22.672C108.907 22.672 109.413 22.4267 109.797 21.936C109.893 21.8187 109.968 21.744 110.021 21.712C110.085 21.68 110.176 21.664 110.293 21.664H111.669C111.765 21.664 111.845 21.696 111.909 21.76C111.984 21.8133 112.021 21.8827 112.021 21.968C112.021 22.224 111.867 22.528 111.557 22.88C111.259 23.2213 110.827 23.52 110.261 23.776C109.696 24.032 109.04 24.16 108.293 24.16ZM110.069 19.12V19.072C110.069 18.4427 109.909 17.936 109.589 17.552C109.28 17.168 108.848 16.976 108.293 16.976C107.739 16.976 107.307 17.168 106.997 17.552C106.688 17.936 106.533 18.4427 106.533 19.072V19.12H110.069ZM121.52 24.16C120.581 24.16 119.781 24.0107 119.12 23.712C118.469 23.4133 117.979 23.04 117.648 22.592C117.328 22.1333 117.157 21.664 117.136 21.184C117.136 21.088 117.168 21.0133 117.232 20.96C117.307 20.896 117.392 20.864 117.488 20.864H118.928C119.163 20.864 119.317 20.9707 119.392 21.184C119.627 21.952 120.341 22.336 121.536 22.336C122.187 22.336 122.699 22.1867 123.072 21.888C123.445 21.5787 123.632 21.1413 123.632 20.576C123.632 19.5093 122.965 18.976 121.632 18.976H119.984C119.867 18.976 119.771 18.9387 119.696 18.864C119.621 18.7893 119.584 18.6987 119.584 18.592V17.92C119.584 17.7493 119.659 17.5893 119.808 17.44L122.672 14.64H118.096C117.989 14.64 117.899 14.6027 117.824 14.528C117.749 14.4533 117.712 14.3627 117.712 14.256V13.2C117.712 13.0827 117.744 12.9867 117.808 12.912C117.883 12.8373 117.979 12.8 118.096 12.8H124.96C125.077 12.8 125.173 12.8373 125.248 12.912C125.323 12.9867 125.36 13.0827 125.36 13.2V14.16C125.36 14.32 125.291 14.4693 125.152 14.608L122.384 17.456L122.576 17.472C123.6 17.5573 124.411 17.8667 125.008 18.4C125.616 18.9333 125.92 19.696 125.92 20.688C125.92 21.392 125.728 22.0053 125.344 22.528C124.971 23.0507 124.448 23.456 123.776 23.744C123.115 24.0213 122.363 24.16 121.52 24.16ZM135.327 20.112C135.22 20.112 135.129 20.0747 135.055 20C134.98 19.9253 134.943 19.8347 134.943 19.728V18.672C134.943 18.5547 134.98 18.464 135.055 18.4C135.129 18.3253 135.22 18.288 135.327 18.288H140.239C140.356 18.288 140.447 18.3253 140.511 18.4C140.585 18.464 140.623 18.5547 140.623 18.672V19.728C140.623 19.8347 140.585 19.9253 140.511 20C140.447 20.0747 140.356 20.112 140.239 20.112H135.327ZM146.926 24C146.819 24 146.729 23.9627 146.654 23.888C146.579 23.8133 146.542 23.7227 146.542 23.616V13.2C146.542 13.0827 146.574 12.9867 146.638 12.912C146.713 12.8373 146.809 12.8 146.926 12.8H153.87C153.987 12.8 154.083 12.8373 154.158 12.912C154.233 12.9867 154.27 13.0827 154.27 13.2V14.32C154.27 14.4373 154.233 14.5333 154.158 14.608C154.083 14.672 153.987 14.704 153.87 14.704H148.734V17.744H153.55C153.667 17.744 153.763 17.7813 153.838 17.856C153.913 17.9307 153.95 18.0267 153.95 18.144V19.264C153.95 19.3813 153.913 19.4773 153.838 19.552C153.763 19.616 153.667 19.648 153.55 19.648H148.734V23.616C148.734 23.7333 148.697 23.8293 148.622 23.904C148.547 23.968 148.451 24 148.334 24H146.926ZM157.969 24.16C157.425 24.16 156.924 24.0533 156.465 23.84C156.017 23.616 155.66 23.3173 155.393 22.944C155.137 22.5707 155.009 22.16 155.009 21.712C155.009 20.9867 155.302 20.4 155.889 19.952C156.476 19.504 157.281 19.2 158.305 19.04L160.497 18.72V18.384C160.497 17.9147 160.38 17.5627 160.145 17.328C159.91 17.0933 159.532 16.976 159.009 16.976C158.657 16.976 158.369 17.0453 158.145 17.184C157.932 17.312 157.761 17.44 157.633 17.568C157.505 17.7067 157.42 17.7973 157.377 17.84C157.334 17.968 157.254 18.032 157.137 18.032H155.905C155.809 18.032 155.724 18 155.649 17.936C155.585 17.872 155.553 17.7867 155.553 17.68C155.564 17.4133 155.692 17.1093 155.937 16.768C156.193 16.4267 156.582 16.1333 157.105 15.888C157.628 15.6427 158.268 15.52 159.025 15.52C160.284 15.52 161.201 15.8027 161.777 16.368C162.353 16.9333 162.641 17.6747 162.641 18.592V23.616C162.641 23.7227 162.604 23.8133 162.529 23.888C162.465 23.9627 162.374 24 162.257 24H160.961C160.854 24 160.764 23.9627 160.689 23.888C160.614 23.8133 160.577 23.7227 160.577 23.616V22.992C160.342 23.3333 160.006 23.616 159.569 23.84C159.142 24.0533 158.609 24.16 157.969 24.16ZM158.513 22.64C159.1 22.64 159.58 22.448 159.953 22.064C160.326 21.68 160.513 21.12 160.513 20.384V20.048L158.913 20.304C158.294 20.4 157.825 20.5547 157.505 20.768C157.196 20.9813 157.041 21.2427 157.041 21.552C157.041 21.8933 157.185 22.16 157.473 22.352C157.761 22.544 158.108 22.64 158.513 22.64ZM168.294 24.16C167.12 24.16 166.182 23.8347 165.478 23.184C164.784 22.5333 164.416 21.632 164.374 20.48L164.358 19.84L164.374 19.2C164.416 18.048 164.784 17.1467 165.478 16.496C166.182 15.8453 167.12 15.52 168.294 15.52C169.126 15.52 169.83 15.6693 170.406 15.968C170.992 16.2667 171.424 16.6347 171.702 17.072C171.99 17.4987 172.144 17.904 172.166 18.288C172.176 18.3947 172.139 18.4853 172.054 18.56C171.979 18.6347 171.888 18.672 171.782 18.672H170.374C170.267 18.672 170.182 18.6507 170.118 18.608C170.064 18.5547 170.011 18.4693 169.958 18.352C169.798 17.936 169.584 17.6373 169.318 17.456C169.062 17.2747 168.731 17.184 168.326 17.184C167.782 17.184 167.355 17.36 167.046 17.712C166.736 18.0533 166.571 18.576 166.55 19.28L166.534 19.872L166.55 20.4C166.592 21.7973 167.184 22.496 168.326 22.496C168.742 22.496 169.078 22.4053 169.334 22.224C169.59 22.0427 169.798 21.744 169.958 21.328C170.011 21.2107 170.064 21.1307 170.118 21.088C170.182 21.0347 170.267 21.008 170.374 21.008H171.782C171.888 21.008 171.979 21.0453 172.054 21.12C172.139 21.1947 172.176 21.2853 172.166 21.392C172.144 21.7653 171.995 22.1653 171.718 22.592C171.44 23.0187 171.014 23.3867 170.438 23.696C169.862 24.0053 169.147 24.16 168.294 24.16ZM177.594 24C176.624 24 175.893 23.7493 175.402 23.248C174.922 22.736 174.682 21.9893 174.682 21.008V17.376H173.418C173.312 17.376 173.221 17.3387 173.146 17.264C173.072 17.1787 173.034 17.0827 173.034 16.976V16.064C173.034 15.9573 173.072 15.8667 173.146 15.792C173.221 15.7173 173.312 15.68 173.418 15.68H174.682V13.024C174.682 12.9067 174.72 12.816 174.794 12.752C174.869 12.6773 174.96 12.64 175.066 12.64H176.362C176.48 12.64 176.57 12.6773 176.634 12.752C176.709 12.816 176.746 12.9067 176.746 13.024V15.68H178.746C178.864 15.68 178.954 15.7173 179.018 15.792C179.093 15.856 179.13 15.9467 179.13 16.064V16.976C179.13 17.0933 179.093 17.1893 179.018 17.264C178.944 17.3387 178.853 17.376 178.746 17.376H176.746V20.848C176.746 21.3067 176.826 21.6533 176.986 21.888C177.146 22.1227 177.413 22.24 177.786 22.24H178.89C178.997 22.24 179.088 22.2773 179.162 22.352C179.237 22.4267 179.274 22.5173 179.274 22.624V23.616C179.274 23.7227 179.237 23.8133 179.162 23.888C179.098 23.9627 179.008 24 178.89 24H177.594ZM183.782 24.16C182.8 24.16 182.027 23.84 181.462 23.2C180.896 22.5493 180.614 21.6693 180.614 20.56V16.064C180.614 15.9573 180.651 15.8667 180.726 15.792C180.8 15.7173 180.891 15.68 180.998 15.68H182.406C182.523 15.68 182.614 15.7173 182.678 15.792C182.752 15.856 182.79 15.9467 182.79 16.064V20.464C182.79 21.7867 183.371 22.448 184.534 22.448C185.088 22.448 185.526 22.272 185.846 21.92C186.176 21.568 186.342 21.0827 186.342 20.464V16.064C186.342 15.9573 186.379 15.8667 186.454 15.792C186.528 15.7173 186.619 15.68 186.726 15.68H188.134C188.251 15.68 188.342 15.7173 188.406 15.792C188.48 15.856 188.518 15.9467 188.518 16.064V23.616C188.518 23.7227 188.48 23.8133 188.406 23.888C188.342 23.9627 188.251 24 188.134 24H186.838C186.731 24 186.64 23.9627 186.566 23.888C186.491 23.8133 186.454 23.7227 186.454 23.616V22.96C185.856 23.76 184.966 24.16 183.782 24.16ZM191.015 24C190.909 24 190.818 23.9627 190.743 23.888C190.669 23.8133 190.631 23.7227 190.631 23.616V16.08C190.631 15.9733 190.669 15.8827 190.743 15.808C190.818 15.7227 190.909 15.68 191.015 15.68H192.311C192.429 15.68 192.525 15.7173 192.599 15.792C192.674 15.8667 192.711 15.9627 192.711 16.08V16.736C192.967 16.3947 193.287 16.1333 193.671 15.952C194.066 15.7707 194.514 15.68 195.015 15.68H195.671C195.789 15.68 195.879 15.7173 195.943 15.792C196.018 15.856 196.055 15.9467 196.055 16.064V17.216C196.055 17.3227 196.018 17.4133 195.943 17.488C195.879 17.5627 195.789 17.6 195.671 17.6H194.423C193.922 17.6 193.527 17.744 193.239 18.032C192.951 18.32 192.807 18.7147 192.807 19.216V23.616C192.807 23.7227 192.77 23.8133 192.695 23.888C192.621 23.9627 192.525 24 192.407 24H191.015ZM199.594 24.16C199.05 24.16 198.549 24.0533 198.09 23.84C197.642 23.616 197.285 23.3173 197.018 22.944C196.762 22.5707 196.634 22.16 196.634 21.712C196.634 20.9867 196.927 20.4 197.514 19.952C198.101 19.504 198.906 19.2 199.93 19.04L202.122 18.72V18.384C202.122 17.9147 202.005 17.5627 201.77 17.328C201.535 17.0933 201.157 16.976 200.634 16.976C200.282 16.976 199.994 17.0453 199.77 17.184C199.557 17.312 199.386 17.44 199.258 17.568C199.13 17.7067 199.045 17.7973 199.002 17.84C198.959 17.968 198.879 18.032 198.762 18.032H197.53C197.434 18.032 197.349 18 197.274 17.936C197.21 17.872 197.178 17.7867 197.178 17.68C197.189 17.4133 197.317 17.1093 197.562 16.768C197.818 16.4267 198.207 16.1333 198.73 15.888C199.253 15.6427 199.893 15.52 200.65 15.52C201.909 15.52 202.826 15.8027 203.402 16.368C203.978 16.9333 204.266 17.6747 204.266 18.592V23.616C204.266 23.7227 204.229 23.8133 204.154 23.888C204.09 23.9627 203.999 24 203.882 24H202.586C202.479 24 202.389 23.9627 202.314 23.888C202.239 23.8133 202.202 23.7227 202.202 23.616V22.992C201.967 23.3333 201.631 23.616 201.194 23.84C200.767 24.0533 200.234 24.16 199.594 24.16ZM200.138 22.64C200.725 22.64 201.205 22.448 201.578 22.064C201.951 21.68 202.138 21.12 202.138 20.384V20.048L200.538 20.304C199.919 20.4 199.45 20.5547 199.13 20.768C198.821 20.9813 198.666 21.2427 198.666 21.552C198.666 21.8933 198.81 22.16 199.098 22.352C199.386 22.544 199.733 22.64 200.138 22.64ZM210.001 24C209.03 24 208.299 23.7493 207.809 23.248C207.329 22.736 207.089 21.9893 207.089 21.008V17.376H205.825C205.718 17.376 205.627 17.3387 205.553 17.264C205.478 17.1787 205.441 17.0827 205.441 16.976V16.064C205.441 15.9573 205.478 15.8667 205.553 15.792C205.627 15.7173 205.718 15.68 205.825 15.68H207.089V13.024C207.089 12.9067 207.126 12.816 207.201 12.752C207.275 12.6773 207.366 12.64 207.473 12.64H208.769C208.886 12.64 208.977 12.6773 209.041 12.752C209.115 12.816 209.153 12.9067 209.153 13.024V15.68H211.153C211.27 15.68 211.361 15.7173 211.425 15.792C211.499 15.856 211.537 15.9467 211.537 16.064V16.976C211.537 17.0933 211.499 17.1893 211.425 17.264C211.35 17.3387 211.259 17.376 211.153 17.376H209.153V20.848C209.153 21.3067 209.233 21.6533 209.393 21.888C209.553 22.1227 209.819 22.24 210.193 22.24H211.297C211.403 22.24 211.494 22.2773 211.569 22.352C211.643 22.4267 211.681 22.5173 211.681 22.624V23.616C211.681 23.7227 211.643 23.8133 211.569 23.888C211.505 23.9627 211.414 24 211.297 24H210.001ZM213.42 14.304C213.313 14.304 213.223 14.2667 213.148 14.192C213.073 14.1173 213.036 14.0267 213.036 13.92V12.768C213.036 12.6613 213.073 12.5707 213.148 12.496C213.223 12.4213 213.313 12.384 213.42 12.384H214.876C214.983 12.384 215.073 12.4213 215.148 12.496C215.233 12.5707 215.276 12.6613 215.276 12.768V13.92C215.276 14.0267 215.239 14.1173 215.164 14.192C215.089 14.2667 214.993 14.304 214.876 14.304H213.42ZM213.484 24C213.377 24 213.287 23.9627 213.212 23.888C213.137 23.8133 213.1 23.7227 213.1 23.616V16.064C213.1 15.9573 213.137 15.8667 213.212 15.792C213.287 15.7173 213.377 15.68 213.484 15.68H214.812C214.929 15.68 215.02 15.7173 215.084 15.792C215.159 15.856 215.196 15.9467 215.196 16.064V23.616C215.196 23.7227 215.159 23.8133 215.084 23.888C215.02 23.9627 214.929 24 214.812 24H213.484ZM220.999 24.16C219.751 24.16 218.785 23.84 218.103 23.2C217.42 22.5493 217.052 21.664 216.999 20.544L216.983 19.84L216.999 19.136C217.052 18.0267 217.425 17.1467 218.119 16.496C218.812 15.8453 219.772 15.52 220.999 15.52C222.225 15.52 223.185 15.8453 223.879 16.496C224.572 17.1467 224.945 18.0267 224.999 19.136C225.009 19.264 225.015 19.4987 225.015 19.84C225.015 20.1813 225.009 20.416 224.999 20.544C224.945 21.664 224.577 22.5493 223.895 23.2C223.212 23.84 222.247 24.16 220.999 24.16ZM220.999 22.576C221.564 22.576 222.001 22.4 222.311 22.048C222.62 21.6853 222.791 21.1573 222.823 20.464C222.833 20.3573 222.839 20.1493 222.839 19.84C222.839 19.5307 222.833 19.3227 222.823 19.216C222.791 18.5227 222.62 18 222.311 17.648C222.001 17.2853 221.564 17.104 220.999 17.104C220.433 17.104 219.996 17.2853 219.687 17.648C219.377 18 219.207 18.5227 219.175 19.216L219.159 19.84L219.175 20.464C219.207 21.1573 219.377 21.6853 219.687 22.048C219.996 22.4 220.433 22.576 220.999 22.576ZM227.171 24C227.065 24 226.974 23.9627 226.899 23.888C226.825 23.8133 226.787 23.7227 226.787 23.616V16.064C226.787 15.9573 226.825 15.8667 226.899 15.792C226.974 15.7173 227.065 15.68 227.171 15.68H228.483C228.59 15.68 228.681 15.7173 228.755 15.792C228.83 15.8667 228.867 15.9573 228.867 16.064V16.72C229.497 15.92 230.387 15.52 231.539 15.52C232.521 15.52 233.299 15.8453 233.875 16.496C234.451 17.136 234.739 18.0107 234.739 19.12V23.616C234.739 23.7227 234.702 23.8133 234.627 23.888C234.563 23.9627 234.473 24 234.355 24H232.947C232.841 24 232.75 23.9627 232.675 23.888C232.601 23.8133 232.563 23.7227 232.563 23.616V19.216C232.563 18.5867 232.409 18.1013 232.099 17.76C231.801 17.408 231.363 17.232 230.787 17.232C230.222 17.232 229.774 17.408 229.443 17.76C229.123 18.112 228.963 18.5973 228.963 19.216V23.616C228.963 23.7227 228.926 23.8133 228.851 23.888C228.787 23.9627 228.697 24 228.579 24H227.171Z" fill="white"/>
</svg>
