<svg width="290" height="36" viewBox="0 0 290 36" fill="none" xmlns="http://www.w3.org/2000/svg">
<path d="M1.14258 18V1H264.222L289 18L264.222 35H1.14258V18Z" fill="#398172" stroke="black"/>
<path d="M29.6916 24C29.5849 24 29.4942 23.9627 29.4196 23.888C29.3449 23.8133 29.3076 23.7227 29.3076 23.616V13.2C29.3076 13.0827 29.3396 12.9867 29.4036 12.912C29.4782 12.8373 29.5742 12.8 29.6916 12.8H36.7316C36.8489 12.8 36.9449 12.8373 37.0196 12.912C37.0942 12.9867 37.1316 13.0827 37.1316 13.2V14.256C37.1316 14.3733 37.0942 14.4693 37.0196 14.544C36.9449 14.608 36.8489 14.64 36.7316 14.64H31.4676V17.472H36.3796C36.4969 17.472 36.5929 17.5093 36.6676 17.584C36.7422 17.648 36.7796 17.7387 36.7796 17.856V18.848C36.7796 18.9653 36.7422 19.0613 36.6676 19.136C36.5929 19.2 36.4969 19.232 36.3796 19.232H31.4676V22.16H36.8596C36.9769 22.16 37.0729 22.1973 37.1476 22.272C37.2222 22.3467 37.2596 22.4427 37.2596 22.56V23.616C37.2596 23.7333 37.2222 23.8293 37.1476 23.904C37.0729 23.968 36.9769 24 36.8596 24H29.6916ZM32.3156 12C32.1449 12 32.0596 11.9147 32.0596 11.744C32.0596 11.6587 32.0862 11.5893 32.1396 11.536L33.4356 9.952C33.5422 9.83467 33.6329 9.76 33.7076 9.728C33.7822 9.68533 33.8889 9.664 34.0276 9.664H35.7396C35.9422 9.664 36.0436 9.76533 36.0436 9.968C36.0436 10.0427 36.0169 10.1067 35.9636 10.16L33.9796 11.792C33.8836 11.8667 33.7929 11.92 33.7076 11.952C33.6329 11.984 33.5369 12 33.4196 12H32.3156ZM42.7193 24C41.7487 24 41.018 23.7493 40.5273 23.248C40.0473 22.736 39.8073 21.9893 39.8073 21.008V17.376H38.5433C38.4367 17.376 38.346 17.3387 38.2713 17.264C38.1967 17.1787 38.1593 17.0827 38.1593 16.976V16.064C38.1593 15.9573 38.1967 15.8667 38.2713 15.792C38.346 15.7173 38.4367 15.68 38.5433 15.68H39.8073V13.024C39.8073 12.9067 39.8447 12.816 39.9193 12.752C39.994 12.6773 40.0847 12.64 40.1913 12.64H41.4873C41.6047 12.64 41.6953 12.6773 41.7593 12.752C41.834 12.816 41.8713 12.9067 41.8713 13.024V15.68H43.8713C43.9887 15.68 44.0793 15.7173 44.1433 15.792C44.218 15.856 44.2553 15.9467 44.2553 16.064V16.976C44.2553 17.0933 44.218 17.1893 44.1433 17.264C44.0687 17.3387 43.978 17.376 43.8713 17.376H41.8713V20.848C41.8713 21.3067 41.9513 21.6533 42.1113 21.888C42.2713 22.1227 42.538 22.24 42.9113 22.24H44.0153C44.122 22.24 44.2127 22.2773 44.2873 22.352C44.362 22.4267 44.3993 22.5173 44.3993 22.624V23.616C44.3993 23.7227 44.362 23.8133 44.2873 23.888C44.2233 23.9627 44.1327 24 44.0153 24H42.7193ZM48.2347 24.16C47.6907 24.16 47.1894 24.0533 46.7307 23.84C46.2827 23.616 45.9254 23.3173 45.6587 22.944C45.4027 22.5707 45.2747 22.16 45.2747 21.712C45.2747 20.9867 45.568 20.4 46.1547 19.952C46.7414 19.504 47.5467 19.2 48.5707 19.04L50.7627 18.72V18.384C50.7627 17.9147 50.6454 17.5627 50.4107 17.328C50.176 17.0933 49.7974 16.976 49.2747 16.976C48.9227 16.976 48.6347 17.0453 48.4107 17.184C48.1974 17.312 48.0267 17.44 47.8987 17.568C47.7707 17.7067 47.6854 17.7973 47.6427 17.84C47.6 17.968 47.52 18.032 47.4027 18.032H46.1707C46.0747 18.032 45.9894 18 45.9147 17.936C45.8507 17.872 45.8187 17.7867 45.8187 17.68C45.8294 17.4133 45.9574 17.1093 46.2027 16.768C46.4587 16.4267 46.848 16.1333 47.3707 15.888C47.8934 15.6427 48.5334 15.52 49.2907 15.52C50.5494 15.52 51.4667 15.8027 52.0427 16.368C52.6187 16.9333 52.9067 17.6747 52.9067 18.592V23.616C52.9067 23.7227 52.8694 23.8133 52.7947 23.888C52.7307 23.9627 52.64 24 52.5227 24H51.2267C51.12 24 51.0294 23.9627 50.9547 23.888C50.88 23.8133 50.8427 23.7227 50.8427 23.616V22.992C50.608 23.3333 50.272 23.616 49.8347 23.84C49.408 24.0533 48.8747 24.16 48.2347 24.16ZM48.7787 22.64C49.3654 22.64 49.8454 22.448 50.2187 22.064C50.592 21.68 50.7787 21.12 50.7787 20.384V20.048L49.1787 20.304C48.56 20.4 48.0907 20.5547 47.7707 20.768C47.4614 20.9813 47.3067 21.2427 47.3067 21.552C47.3067 21.8933 47.4507 22.16 47.7387 22.352C48.0267 22.544 48.3734 22.64 48.7787 22.64ZM55.3593 27.04C55.2527 27.04 55.162 27.0027 55.0873 26.928C55.0127 26.864 54.9753 26.7733 54.9753 26.656V16.064C54.9753 15.9467 55.0127 15.856 55.0873 15.792C55.162 15.7173 55.2527 15.68 55.3593 15.68H56.6233C56.7407 15.68 56.8313 15.7173 56.8953 15.792C56.97 15.856 57.0073 15.9467 57.0073 16.064V16.704C57.6047 15.9147 58.458 15.52 59.5673 15.52C60.6447 15.52 61.4713 15.8613 62.0473 16.544C62.6233 17.216 62.9327 18.128 62.9753 19.28C62.986 19.408 62.9913 19.5947 62.9913 19.84C62.9913 20.096 62.986 20.288 62.9753 20.416C62.9327 21.536 62.6233 22.4427 62.0473 23.136C61.4713 23.8187 60.6447 24.16 59.5673 24.16C58.49 24.16 57.6687 23.7813 57.1033 23.024V26.656C57.1033 26.7733 57.066 26.864 56.9913 26.928C56.9273 27.0027 56.8367 27.04 56.7193 27.04H55.3593ZM58.9753 22.448C60.1273 22.448 60.7407 21.7387 60.8153 20.32C60.826 20.2133 60.8313 20.0533 60.8313 19.84C60.8313 19.6267 60.826 19.4667 60.8153 19.36C60.7407 17.9413 60.1273 17.232 58.9753 17.232C58.3567 17.232 57.898 17.4293 57.5993 17.824C57.3007 18.2187 57.1353 18.704 57.1033 19.28L57.0873 19.888L57.1033 20.512C57.1247 21.0453 57.29 21.504 57.5993 21.888C57.9193 22.2613 58.378 22.448 58.9753 22.448ZM68.3714 24.16C67.1874 24.16 66.2434 23.8187 65.5394 23.136C64.8461 22.4427 64.4781 21.472 64.4354 20.224L64.4194 19.824L64.4354 19.424C64.4888 18.208 64.8621 17.2533 65.5554 16.56C66.2594 15.8667 67.1981 15.52 68.3714 15.52C69.6301 15.52 70.6008 15.904 71.2834 16.672C71.9768 17.44 72.3234 18.464 72.3234 19.744V20.08C72.3234 20.1867 72.2861 20.2773 72.2114 20.352C72.1368 20.4267 72.0408 20.464 71.9234 20.464H66.6114V20.592C66.6328 21.1787 66.7928 21.6747 67.0914 22.08C67.4008 22.4747 67.8221 22.672 68.3554 22.672C68.9848 22.672 69.4914 22.4267 69.8754 21.936C69.9714 21.8187 70.0461 21.744 70.0994 21.712C70.1634 21.68 70.2541 21.664 70.3714 21.664H71.7474C71.8434 21.664 71.9234 21.696 71.9874 21.76C72.0621 21.8133 72.0994 21.8827 72.0994 21.968C72.0994 22.224 71.9448 22.528 71.6354 22.88C71.3368 23.2213 70.9048 23.52 70.3394 23.776C69.7741 24.032 69.1181 24.16 68.3714 24.16ZM70.1474 19.12V19.072C70.1474 18.4427 69.9874 17.936 69.6674 17.552C69.3581 17.168 68.9261 16.976 68.3714 16.976C67.8168 16.976 67.3848 17.168 67.0754 17.552C66.7661 17.936 66.6114 18.4427 66.6114 19.072V19.12H70.1474ZM81.0541 24C80.9474 24 80.8567 23.9627 80.7821 23.888C80.7074 23.8133 80.6701 23.7227 80.6701 23.616V15.328L78.2381 17.2C78.1741 17.2533 78.0994 17.28 78.0141 17.28C77.8861 17.28 77.7794 17.2213 77.6941 17.104L77.0221 16.24C76.9687 16.1547 76.9421 16.0747 76.9421 16C76.9421 15.872 77.0007 15.7653 77.1181 15.68L80.7021 12.912C80.7981 12.8373 80.9314 12.8 81.1021 12.8H82.5101C82.6274 12.8 82.7181 12.8373 82.7821 12.912C82.8567 12.976 82.8941 13.0667 82.8941 13.184V23.616C82.8941 23.7227 82.8567 23.8133 82.7821 23.888C82.7181 23.9627 82.6274 24 82.5101 24H81.0541ZM91.8286 24.16C90.7512 24.16 89.9246 23.8133 89.3486 23.12C88.7726 22.4267 88.4632 21.504 88.4206 20.352L88.4046 19.824L88.4206 19.312C88.4526 18.192 88.7566 17.28 89.3326 16.576C89.9192 15.872 90.7512 15.52 91.8286 15.52C92.8632 15.52 93.6846 15.872 94.2926 16.576V13.024C94.2926 12.9067 94.3299 12.816 94.4046 12.752C94.4792 12.6773 94.5699 12.64 94.6766 12.64H96.0366C96.1539 12.64 96.2446 12.6773 96.3086 12.752C96.3832 12.816 96.4206 12.9067 96.4206 13.024V23.616C96.4206 23.7227 96.3832 23.8133 96.3086 23.888C96.2446 23.9627 96.1539 24 96.0366 24H94.7726C94.6659 24 94.5752 23.9627 94.5006 23.888C94.4259 23.8133 94.3886 23.7227 94.3886 23.616V23.024C93.7806 23.7813 92.9272 24.16 91.8286 24.16ZM92.4206 22.448C93.0392 22.448 93.4979 22.2507 93.7966 21.856C94.0952 21.4613 94.2606 20.976 94.2926 20.4C94.3032 20.272 94.3086 20.064 94.3086 19.776C94.3086 19.4987 94.3032 19.296 94.2926 19.168C94.2712 18.6347 94.1006 18.1813 93.7806 17.808C93.4712 17.424 93.0179 17.232 92.4206 17.232C91.2686 17.232 90.6552 17.9413 90.5806 19.36L90.5646 19.84L90.5806 20.32C90.6552 21.7387 91.2686 22.448 92.4206 22.448ZM105.793 24.16C104.609 24.16 103.665 23.8187 102.961 23.136C102.268 22.4427 101.9 21.472 101.857 20.224L101.841 19.824L101.857 19.424C101.911 18.208 102.284 17.2533 102.977 16.56C103.681 15.8667 104.62 15.52 105.793 15.52C107.052 15.52 108.023 15.904 108.705 16.672C109.399 17.44 109.745 18.464 109.745 19.744V20.08C109.745 20.1867 109.708 20.2773 109.633 20.352C109.559 20.4267 109.463 20.464 109.345 20.464H104.033V20.592C104.055 21.1787 104.215 21.6747 104.513 22.08C104.823 22.4747 105.244 22.672 105.777 22.672C106.407 22.672 106.913 22.4267 107.297 21.936C107.393 21.8187 107.468 21.744 107.521 21.712C107.585 21.68 107.676 21.664 107.793 21.664H109.169C109.265 21.664 109.345 21.696 109.409 21.76C109.484 21.8133 109.521 21.8827 109.521 21.968C109.521 22.224 109.367 22.528 109.057 22.88C108.759 23.2213 108.327 23.52 107.761 23.776C107.196 24.032 106.54 24.16 105.793 24.16ZM107.569 19.12V19.072C107.569 18.4427 107.409 17.936 107.089 17.552C106.78 17.168 106.348 16.976 105.793 16.976C105.239 16.976 104.807 17.168 104.497 17.552C104.188 17.936 104.033 18.4427 104.033 19.072V19.12H107.569ZM119.02 24.16C118.081 24.16 117.281 24.0107 116.62 23.712C115.969 23.4133 115.479 23.04 115.148 22.592C114.828 22.1333 114.657 21.664 114.636 21.184C114.636 21.088 114.668 21.0133 114.732 20.96C114.807 20.896 114.892 20.864 114.988 20.864H116.428C116.663 20.864 116.817 20.9707 116.892 21.184C117.127 21.952 117.841 22.336 119.036 22.336C119.687 22.336 120.199 22.1867 120.572 21.888C120.945 21.5787 121.132 21.1413 121.132 20.576C121.132 19.5093 120.465 18.976 119.132 18.976H117.484C117.367 18.976 117.271 18.9387 117.196 18.864C117.121 18.7893 117.084 18.6987 117.084 18.592V17.92C117.084 17.7493 117.159 17.5893 117.308 17.44L120.172 14.64H115.596C115.489 14.64 115.399 14.6027 115.324 14.528C115.249 14.4533 115.212 14.3627 115.212 14.256V13.2C115.212 13.0827 115.244 12.9867 115.308 12.912C115.383 12.8373 115.479 12.8 115.596 12.8H122.46C122.577 12.8 122.673 12.8373 122.748 12.912C122.823 12.9867 122.86 13.0827 122.86 13.2V14.16C122.86 14.32 122.791 14.4693 122.652 14.608L119.884 17.456L120.076 17.472C121.1 17.5573 121.911 17.8667 122.508 18.4C123.116 18.9333 123.42 19.696 123.42 20.688C123.42 21.392 123.228 22.0053 122.844 22.528C122.471 23.0507 121.948 23.456 121.276 23.744C120.615 24.0213 119.863 24.16 119.02 24.16ZM132.827 20.112C132.72 20.112 132.629 20.0747 132.555 20C132.48 19.9253 132.443 19.8347 132.443 19.728V18.672C132.443 18.5547 132.48 18.464 132.555 18.4C132.629 18.3253 132.72 18.288 132.827 18.288H137.739C137.856 18.288 137.947 18.3253 138.011 18.4C138.085 18.464 138.123 18.5547 138.123 18.672V19.728C138.123 19.8347 138.085 19.9253 138.011 20C137.947 20.0747 137.856 20.112 137.739 20.112H132.827ZM144.426 24C144.319 24 144.229 23.9627 144.154 23.888C144.079 23.8133 144.042 23.7227 144.042 23.616V13.184C144.042 13.0667 144.079 12.976 144.154 12.912C144.229 12.8373 144.319 12.8 144.426 12.8H145.914C146.031 12.8 146.122 12.8373 146.186 12.912C146.261 12.976 146.298 13.0667 146.298 13.184V22.096H151.37C151.487 22.096 151.583 22.1333 151.658 22.208C151.733 22.2827 151.77 22.3787 151.77 22.496V23.616C151.77 23.7333 151.733 23.8293 151.658 23.904C151.583 23.968 151.487 24 151.37 24H144.426ZM153.451 14.304C153.345 14.304 153.254 14.2667 153.179 14.192C153.105 14.1173 153.067 14.0267 153.067 13.92V12.768C153.067 12.6613 153.105 12.5707 153.179 12.496C153.254 12.4213 153.345 12.384 153.451 12.384H154.907C155.014 12.384 155.105 12.4213 155.179 12.496C155.265 12.5707 155.307 12.6613 155.307 12.768V13.92C155.307 14.0267 155.27 14.1173 155.195 14.192C155.121 14.2667 155.025 14.304 154.907 14.304H153.451ZM153.515 24C153.409 24 153.318 23.9627 153.243 23.888C153.169 23.8133 153.131 23.7227 153.131 23.616V16.064C153.131 15.9573 153.169 15.8667 153.243 15.792C153.318 15.7173 153.409 15.68 153.515 15.68H154.843C154.961 15.68 155.051 15.7173 155.115 15.792C155.19 15.856 155.227 15.9467 155.227 16.064V23.616C155.227 23.7227 155.19 23.8133 155.115 23.888C155.051 23.9627 154.961 24 154.843 24H153.515ZM160.294 24C160.134 24 160.011 23.968 159.926 23.904C159.841 23.8293 159.771 23.728 159.718 23.6L156.726 16.176L156.694 16.032C156.694 15.936 156.726 15.856 156.79 15.792C156.865 15.7173 156.95 15.68 157.046 15.68H158.342C158.545 15.68 158.683 15.7813 158.758 15.984L160.886 21.6L163.014 15.984C163.046 15.9093 163.094 15.84 163.158 15.776C163.233 15.712 163.323 15.68 163.43 15.68H164.742C164.827 15.68 164.902 15.7173 164.966 15.792C165.041 15.856 165.078 15.936 165.078 16.032C165.078 16.096 165.073 16.144 165.062 16.176L162.054 23.6C162.001 23.728 161.931 23.8293 161.846 23.904C161.761 23.968 161.638 24 161.478 24H160.294ZM166.921 24C166.815 24 166.724 23.9627 166.649 23.888C166.575 23.8133 166.537 23.7227 166.537 23.616V16.08C166.537 15.9733 166.575 15.8827 166.649 15.808C166.724 15.7227 166.815 15.68 166.921 15.68H168.217C168.335 15.68 168.431 15.7173 168.505 15.792C168.58 15.8667 168.617 15.9627 168.617 16.08V16.736C168.873 16.3947 169.193 16.1333 169.577 15.952C169.972 15.7707 170.42 15.68 170.921 15.68H171.577C171.695 15.68 171.785 15.7173 171.849 15.792C171.924 15.856 171.961 15.9467 171.961 16.064V17.216C171.961 17.3227 171.924 17.4133 171.849 17.488C171.785 17.5627 171.695 17.6 171.577 17.6H170.329C169.828 17.6 169.433 17.744 169.145 18.032C168.857 18.32 168.713 18.7147 168.713 19.216V23.616C168.713 23.7227 168.676 23.8133 168.601 23.888C168.527 23.9627 168.431 24 168.313 24H166.921ZM175.5 24.16C174.956 24.16 174.455 24.0533 173.996 23.84C173.548 23.616 173.191 23.3173 172.924 22.944C172.668 22.5707 172.54 22.16 172.54 21.712C172.54 20.9867 172.834 20.4 173.42 19.952C174.007 19.504 174.812 19.2 175.836 19.04L178.028 18.72V18.384C178.028 17.9147 177.911 17.5627 177.676 17.328C177.442 17.0933 177.063 16.976 176.54 16.976C176.188 16.976 175.9 17.0453 175.676 17.184C175.463 17.312 175.292 17.44 175.164 17.568C175.036 17.7067 174.951 17.7973 174.908 17.84C174.866 17.968 174.786 18.032 174.668 18.032H173.436C173.34 18.032 173.255 18 173.18 17.936C173.116 17.872 173.084 17.7867 173.084 17.68C173.095 17.4133 173.223 17.1093 173.468 16.768C173.724 16.4267 174.114 16.1333 174.636 15.888C175.159 15.6427 175.799 15.52 176.556 15.52C177.815 15.52 178.732 15.8027 179.308 16.368C179.884 16.9333 180.172 17.6747 180.172 18.592V23.616C180.172 23.7227 180.135 23.8133 180.06 23.888C179.996 23.9627 179.906 24 179.788 24H178.492C178.386 24 178.295 23.9627 178.22 23.888C178.146 23.8133 178.108 23.7227 178.108 23.616V22.992C177.874 23.3333 177.538 23.616 177.1 23.84C176.674 24.0533 176.14 24.16 175.5 24.16ZM176.044 22.64C176.631 22.64 177.111 22.448 177.484 22.064C177.858 21.68 178.044 21.12 178.044 20.384V20.048L176.444 20.304C175.826 20.4 175.356 20.5547 175.036 20.768C174.727 20.9813 174.572 21.2427 174.572 21.552C174.572 21.8933 174.716 22.16 175.004 22.352C175.292 22.544 175.639 22.64 176.044 22.64ZM182.545 14.304C182.438 14.304 182.348 14.2667 182.273 14.192C182.198 14.1173 182.161 14.0267 182.161 13.92V12.768C182.161 12.6613 182.198 12.5707 182.273 12.496C182.348 12.4213 182.438 12.384 182.545 12.384H184.001C184.108 12.384 184.198 12.4213 184.273 12.496C184.358 12.5707 184.401 12.6613 184.401 12.768V13.92C184.401 14.0267 184.364 14.1173 184.289 14.192C184.214 14.2667 184.118 14.304 184.001 14.304H182.545ZM182.609 24C182.502 24 182.412 23.9627 182.337 23.888C182.262 23.8133 182.225 23.7227 182.225 23.616V16.064C182.225 15.9573 182.262 15.8667 182.337 15.792C182.412 15.7173 182.502 15.68 182.609 15.68H183.937C184.054 15.68 184.145 15.7173 184.209 15.792C184.284 15.856 184.321 15.9467 184.321 16.064V23.616C184.321 23.7227 184.284 23.8133 184.209 23.888C184.145 23.9627 184.054 24 183.937 24H182.609ZM189.596 24.16C188.796 24.16 188.124 24.0427 187.58 23.808C187.036 23.5627 186.63 23.28 186.364 22.96C186.108 22.6293 185.98 22.3467 185.98 22.112C185.98 22.0053 186.017 21.92 186.092 21.856C186.166 21.792 186.252 21.76 186.348 21.76H187.612C187.708 21.76 187.788 21.7973 187.852 21.872C187.894 21.904 188.006 22 188.188 22.16C188.369 22.3307 188.582 22.464 188.828 22.56C189.073 22.656 189.345 22.704 189.644 22.704C190.07 22.704 190.422 22.6187 190.7 22.448C190.977 22.2773 191.116 22.0427 191.116 21.744C191.116 21.52 191.052 21.3387 190.924 21.2C190.806 21.0613 190.588 20.9387 190.268 20.832C189.948 20.7147 189.473 20.592 188.844 20.464C187.937 20.272 187.265 19.9787 186.828 19.584C186.401 19.1893 186.188 18.6667 186.188 18.016C186.188 17.5893 186.316 17.1893 186.572 16.816C186.828 16.432 187.206 16.1227 187.708 15.888C188.22 15.6427 188.828 15.52 189.532 15.52C190.246 15.52 190.865 15.6373 191.388 15.872C191.91 16.096 192.305 16.368 192.572 16.688C192.849 16.9973 192.988 17.2747 192.988 17.52C192.988 17.616 192.95 17.7013 192.876 17.776C192.812 17.84 192.732 17.872 192.636 17.872H191.452C191.366 17.872 191.276 17.8347 191.18 17.76C191.105 17.7067 190.988 17.6053 190.828 17.456C190.668 17.3067 190.481 17.1893 190.268 17.104C190.054 17.0187 189.804 16.976 189.516 16.976C189.121 16.976 188.812 17.0613 188.588 17.232C188.374 17.4027 188.268 17.6267 188.268 17.904C188.268 18.1067 188.321 18.272 188.428 18.4C188.534 18.528 188.742 18.6507 189.052 18.768C189.361 18.8853 189.825 19.0027 190.444 19.12C191.468 19.3227 192.198 19.6373 192.636 20.064C193.084 20.4907 193.308 21.0133 193.308 21.632C193.308 22.3787 192.982 22.9867 192.332 23.456C191.681 23.9253 190.769 24.16 189.596 24.16ZM198.639 24.16C197.391 24.16 196.426 23.84 195.743 23.2C195.061 22.5493 194.693 21.664 194.639 20.544L194.623 19.84L194.639 19.136C194.693 18.0267 195.066 17.1467 195.759 16.496C196.453 15.8453 197.413 15.52 198.639 15.52C199.866 15.52 200.826 15.8453 201.519 16.496C202.213 17.1467 202.586 18.0267 202.639 19.136C202.65 19.264 202.655 19.4987 202.655 19.84C202.655 20.1813 202.65 20.416 202.639 20.544C202.586 21.664 202.218 22.5493 201.535 23.2C200.853 23.84 199.887 24.16 198.639 24.16ZM198.639 22.576C199.205 22.576 199.642 22.4 199.951 22.048C200.261 21.6853 200.431 21.1573 200.463 20.464C200.474 20.3573 200.479 20.1493 200.479 19.84C200.479 19.5307 200.474 19.3227 200.463 19.216C200.431 18.5227 200.261 18 199.951 17.648C199.642 17.2853 199.205 17.104 198.639 17.104C198.074 17.104 197.637 17.2853 197.327 17.648C197.018 18 196.847 18.5227 196.815 19.216L196.799 19.84L196.815 20.464C196.847 21.1573 197.018 21.6853 197.327 22.048C197.637 22.4 198.074 22.576 198.639 22.576ZM204.812 24C204.705 24 204.615 23.9627 204.54 23.888C204.465 23.8133 204.428 23.7227 204.428 23.616V16.064C204.428 15.9573 204.465 15.8667 204.54 15.792C204.615 15.7173 204.705 15.68 204.812 15.68H206.124C206.231 15.68 206.321 15.7173 206.396 15.792C206.471 15.8667 206.508 15.9573 206.508 16.064V16.72C207.137 15.92 208.028 15.52 209.18 15.52C210.161 15.52 210.94 15.8453 211.516 16.496C212.092 17.136 212.38 18.0107 212.38 19.12V23.616C212.38 23.7227 212.343 23.8133 212.268 23.888C212.204 23.9627 212.113 24 211.996 24H210.588C210.481 24 210.391 23.9627 210.316 23.888C210.241 23.8133 210.204 23.7227 210.204 23.616V19.216C210.204 18.5867 210.049 18.1013 209.74 17.76C209.441 17.408 209.004 17.232 208.428 17.232C207.863 17.232 207.415 17.408 207.084 17.76C206.764 18.112 206.604 18.5973 206.604 19.216V23.616C206.604 23.7227 206.567 23.8133 206.492 23.888C206.428 23.9627 206.337 24 206.22 24H204.812Z" fill="white"/>
</svg>
